/* XPM */
static char *_b69466e96e8433ac5dc8363ab6e2293M15q8IIyWseBZ6nB[] = {
/* columns rows colors chars-per-pixel */
"56 56 246 2 ",
"   c #000201",
".  c #180000",
"X  c #1E2E15",
"o  c #313019",
"O  c #2D3829",
"+  c #333B2B",
"@  c #353B35",
"#  c #4D311A",
"$  c #68320D",
"%  c #6A3516",
"&  c #723817",
"*  c #6E330F",
"=  c #4F3927",
"-  c #6C3A23",
";  c #314619",
":  c #36442E",
">  c #394636",
",  c #3E5438",
"<  c #304A31",
"1  c #484737",
"2  c #44553B",
"3  c #4B5C3C",
"4  c #465637",
"5  c #4E4B33",
"6  c #69422B",
"7  c #7C482A",
"8  c #674735",
"9  c #79553E",
"0  c #724C39",
"q  c #50623E",
"w  c #7A451D",
"e  c #344B52",
"r  c #2E6676",
"t  c #2B5E7D",
"y  c #444742",
"u  c #4D5645",
"i  c #4E5946",
"p  c #4E5C4A",
"a  c #475549",
"s  c #535446",
"d  c #525B4A",
"f  c #56594A",
"g  c #595D56",
"h  c #51514C",
"j  c #6B5647",
"k  c #4D6348",
"l  c #55624B",
"z  c #556346",
"x  c #5B6352",
"c  c #5C6759",
"v  c #4F6050",
"b  c #626355",
"n  c #646558",
"m  c #656D5D",
"M  c #6A695A",
"N  c #786558",
"B  c #66705F",
"V  c #69705E",
"C  c #6E624A",
"Z  c #5A5F63",
"A  c #5A6264",
"S  c #5B6365",
"D  c #676D61",
"F  c #6A6D63",
"G  c #646D6D",
"H  c #6A6E6D",
"J  c #726C69",
"K  c #6B7363",
"L  c #66726D",
"P  c #6A726D",
"I  c #6A7565",
"U  c #74766B",
"Y  c #747B6D",
"T  c #797C6E",
"R  c #747368",
"E  c #656F71",
"W  c #6B6E75",
"Q  c #667273",
"!  c #697274",
"~  c #6C7578",
"^  c #6E797A",
"/  c #767D71",
"(  c #7A7D72",
")  c #737C7D",
"_  c #797E7C",
"`  c #737675",
"'  c #875534",
"]  c #874F2E",
"[  c #825B47",
"{  c #85644C",
"}  c #976A4B",
"|  c #866957",
" . c #976C53",
".. c #9A7559",
"X. c #AC7655",
"o. c #A87858",
"O. c #B37B5A",
"+. c #A16A4F",
"@. c #887666",
"#. c #967667",
"$. c #897D76",
"%. c #8C6F66",
"&. c #AD7D64",
"*. c #75806F",
"=. c #768273",
"-. c #7B8274",
";. c #7D857B",
":. c #79847B",
">. c #BB845E",
",. c #AC815F",
"<. c #83847B",
"1. c #848B7C",
"2. c #868377",
"3. c #9C816F",
"4. c #BA8666",
"5. c #BA8D74",
"6. c #B9937B",
"7. c #AD8672",
"8. c #9EAF4F",
"9. c #C38A64",
"0. c #C58B69",
"q. c #C59879",
"w. c #CA9272",
"e. c #C38A5F",
"r. c #B7C576",
"t. c #195D8F",
"y. c #367F90",
"u. c #797E82",
"i. c #768182",
"p. c #7A8385",
"a. c #7D8586",
"s. c #7B8383",
"d. c #7E8986",
"f. c #7E8788",
"g. c #7D8689",
"h. c #7E898A",
"j. c #778689",
"k. c #7E8B91",
"l. c #458088",
"z. c #828684",
"x. c #848A83",
"c. c #8B8D83",
"v. c #828B8A",
"b. c #8A8E8C",
"n. c #878686",
"m. c #938E8B",
"M. c #8B9385",
"N. c #8D948A",
"B. c #8B978B",
"V. c #919386",
"C. c #92948B",
"Z. c #93998D",
"A. c #9A968C",
"S. c #888E92",
"D. c #8C9393",
"F. c #8D9799",
"G. c #949594",
"H. c #959B93",
"J. c #9B9D94",
"K. c #939A9A",
"L. c #9B9D9B",
"P. c #989496",
"I. c #A29B94",
"U. c #A69A97",
"Y. c #B19A8C",
"T. c #9CA195",
"R. c #9EA49C",
"E. c #9FAA9C",
"W. c #A3A59D",
"Q. c #AAA39B",
"!. c #A3A99D",
"~. c #A7A498",
"^. c #B5A599",
"/. c #BBA187",
"(. c #969EA3",
"). c #9DA3A4",
"_. c #9FA7A7",
"`. c #A3A6A3",
"'. c #A9A5A2",
"]. c #A5AAA2",
"[. c #ABABA4",
"{. c #A3A6A9",
"}. c #A4AAAB",
"|. c #ABACAB",
" X c #B2ABA4",
".X c #B6ACA9",
"XX c #ACB2AD",
"oX c #AAB6A8",
"OX c #B5B3AC",
"+X c #BAB3AC",
"@X c #BBB8AD",
"#X c #AAADB1",
"$X c #B4AFB1",
"%X c #ADB4B3",
"&X c #ABB6B9",
"*X c #B1B4B4",
"=X c #B3B5B9",
"-X c #B3BAB9",
";X c #BABAB5",
":X c #A09FA4",
">X c #D4AD97",
",X c #D1AB93",
"<X c #C7B5AC",
"1X c #C3BBB5",
"2X c #C7BCB9",
"3X c #D3B8A9",
"4X c #C09F8E",
"5X c #B1D28B",
"6X c #C5C3BC",
"7X c #C9C3BB",
"8X c #C6C4B8",
"9X c #D5C5BE",
"0X c #E8C7B6",
"qX c #DAF9B0",
"wX c #CDBEC1",
"eX c #BDC3C1",
"rX c #CAC7C2",
"tX c #D2CCCA",
"yX c #D7CBC5",
"uX c #DBD3CC",
"iX c #D6D3C9",
"pX c #DCD5D2",
"aX c #DBDAD4",
"sX c #E3CDC2",
"dX c #E5D4CC",
"fX c #E4DAD5",
"gX c #FFDDCA",
"hX c #EBE3DC",
"jX c #E6E3DD",
"kX c #F1E6DD",
"lX c #FCE8DC",
"zX c #FFF1DC",
"xX c #EDEAE4",
"cX c #EAE5E3",
"vX c #F3EBE5",
"bX c #F4ECEA",
"nX c #F4E9E5",
"mX c #F5F2EB",
"MX c #FBF3ED",
"NX c #FFF8EA",
"BX c #FCF5F2",
"VX c #FEFCF5",
"CX c #FEFDFB",
"ZX c #F7F6F7",
"AX c #F3EEF2",
"SX c #DEE0D5",
/* pixels */
"L L Q ! ! Q ! Q ! E ! ! ! ! ! ! ! ! ! Q ! ! ! ! Q Q ! ! Q ! ! ! P P Q Q W W W ! Q L P P Q Q Q ! ! ! ! ! ! ! ! ! ",
"! ! ! ! Q ! ! Q Q ! ! ! ! ! G L Q ! ! ! ! Q Q ! ! ! Q Q Q ! ! G P P Q Q ! ! ! H Q Q ! ! Q L ! ~ ! ! ! ! ! ! ! ! ",
"E E E G G ! ~ ! ! Q G E ! ! E ~ ! ! ! ! ! Q ! ^ ! ! ! ! ! ! ! ! E ! Q Q ! ! ! ! Q Q Q Q Q Q ! H ! ! ! ! ! ! ! ! ",
"Z A A A A E Q Q Q Q Q ! ! Q ! E Q E E E Q Q Q ^ a.a.g.g.g.p.a.f.E E E E G G H H Q Q ~ ~ Q Q ! ! ! ! ! ! Q ! ! ! ",
"A A S A A Q ! Q G Q ! Q G ^ a.p.p.i.i.i.i.i.i.g.a.g.p.p.a.p.p.a.i.i.u.s.:.:.i.i.p.^ H ! H P Q ~ ! ! ! ! Q ! ! ! ",
"Z A A A Z ! Q Q ~ Q G ~ ~ ) g.g.g.p.f.a.f.a.) i.i.i.) ) a.g.p.s.i.s.z.z.z.a.a.g.k.i.` ` F L Q Q Q ! ! ! Q ! ! ! ",
"S S A A A ! P ! H H L i.v.p.g.p.p.i.a.p.a.p.^ ~ ! ^ ! ! u.p.i.i.d.:.i.s.a.a.s.s.i.j.a.s.P L Q Q Q Q Q Q Q Q Q Q ",
"S A A A g H F F H ;._ _ a.s.a.p.a.p.a.p.a.a.~ ! ) g.g.g.S.D.D.D.S.d.s.s.z.n.n.z.p.j.s.d.=.:.) E Q Q Q Q Q Q Q Q ",
"A S A A g G.C.c.m.L.P.L.n.s.a.i.g.v.v.v.v.v.) ) s.d.v.d.D.D.D.F.D.b.f.v.<.N N 2.;.i.p.g.p.s.u.` ^ ) ! Q Q Q Q Q ",
"S g S g y tX1XrX2X;X2XrXG.) _ p.F.F.F.D.D.F.v.v.a.v.v.d.D.D.F.D.D.D.F.P.A.= # 3.A.2.n.n.z.s.v.z.f.p.E Q ! Q ^ E ",
"A A G n.rXvXnXbXVXCXCXbXtXXXD.D.B.D.D.D.F.F.a.z.z.z.z.a.S.D.D.D.S.F.V.@.= - - % 6 0 0 8 $.n.i.j.p.f.a.p.) G ! Q ",
"A S _ ].iXcXnXVXMXfXfXaX;XR.b.D.F.D.D.S.D.F.z.D.b.D.b.b.K.K.K.K.(.G.@.9 % & & % 7 } +. .| ( b.g.i.s.s.a.i.) G ! ",
"g F G.iXbXfXBXCXbX;X6XrXL.b.D.F.B.D.D.b.D.D.z.b.K.K.K.K.).).).{.{.m.j $ & & * & ' >.0.w.9 $.m.u.s.<.;.s.s.v.G ! ",
"U F m.rXhXCXCXpX Xn.b.n.s.z.a.i.K.).).`.`.).K.K.G.K.K.G.(.).).).:X X[ $ * * & & $ w 0.q.. o U P.C.C.n._ ` _ ` A ",
"J P..XrXxXCXjX;XL.n.G.z.v.D.F.D.K.).).).).).).).).).).).}.|.|.}.}.OX| 7 ' $ & & * 7 q.# A.s f .X'.|.[.` @ @ _ G ",
"J  X2X7XxXCXrX`.b.N.G.s.F.K.K.K.G.).).).).).}.`.}.}.{.{.%X*X*X%X&X;X%.[ o.% % & & 7 4X. VXJ = yX2X7XtXF     s.~ ",
"H '.uXbXCXCXrX`.B.b.|.K.K.(.F.K.K.#X*X*X=X-X`.].}._.}.{.#X*X*X*X*X;X| 9 ..,.% & & ] q.. . j 3XzXlXMXVXbX`.  _ ^ ",
"H `.uXnXCXCXtX|.L.K.`.D.F.K.).`.L.%X*X*X%X-X`.].}.}.}.{.#X*X%XXX=X+XY.#. .4.' 7 * ] q.' [ &.6.,X/.VXVXmXpX_ s.~ ",
"J '.iXbXCXCXtX|.K._.R.H.F.).`.[.`.%X&X&X%X=X'.'.'.`.`.#X#X*X-X*X*X+X<X6.o.0.O.7 % ] 0.0.w.0.4.4.#.MXMXBXbX6X_ ) ",
"J ~.iXbXCXCXtX|.).).R.[.].).[.W.`.XX&X&X%X%X{.'.'.`.}.}.%X*X-X-X;X XsX0XO.9.0.O.o.o.9.9.9.0.w.5.7.lXVXhXOXn.v.` ",
"( '.uXxXCXCXtX$X).`.$X|.{.}.#X|.{.*X=X-X-X%X|.[.[.[.|.`.*XM.x c f Y.sX0X4.9.>.>.>.,.0.X.O.o.O.o.%.sXyX+Xm.G.v.i.",
"<.[.iXxXVXkX2XY.P.'.U.U.I.A.m.U.I.U.I.L.R.H.G.C.C.N.G.D.R.P @ > O ^.dX0X5.9.9.>.4.4.4.} } } }  .N <X2XQ.m.b.z.v.",
"a.|.aXnXlX3. .' { 3X= 8 8 8 8 6 8 8 1 + > > @ + @ > > @ @ y y 1 O VXVXNXgX4.>.9.0.o.6 6 6 8 8 8 1 Q.I.W.L.D.v.a.",
"h.b.W.yXNX&.0.o.{ [  . .} } } +.+. .j 4 i p p p p i , a e e e e p x g R 4X5.>.e.O. .0 4X^.^.^.Q.~.OX`.W.).).p.v.",
"h.f.G.<XlX .4.4.} 7 o.o.O.X.X.X.O.&.C 1 i k i i p k 2 e t t.t.t v 1 > f @...4.9.O. .8 2X;XOX+XOXOX*X`.).).).g.f.",
"h.g.n.U.sX# 4.q.,.- X.4.4.9.9.0.0.5.N 1 4 4 2 2 i l z < r y.y.l.< l u 1 1 o q.5.4.{ j 2X%X-XXXOX*X*X`.`.).).p.f.",
"v.a.D.G.I.^.j 0 [ 5.4.4.4.4.4.>.4.5.N 1 f z z 4 4 2 , ; 5XqXqXqXX k 4 3 i i 5 5 [ %.s wX*X*X-X%X*X*X`.`.).).g.g.",
"z.v.D.K.G.OX$.@.3.3X>X,X>X>X3X>X>Xq.N 5 l 4 4 q 3 3 i ; 8.8.8.r.; 2 i 4 k z 2 1 j N 1 1X$X=X%X%X*X*X#X{.).).S.g.",
"n.G.P.L.P.=X;X2XpXbXkXhXVXCXVXCXNX/.j = l , , q z z z : ; ; ; 4 2 < i k a , z z 2 : @ rX-X%X%X-X*X*X=X}.)._.K.v.",
"s.D.L.L.F.=X=X*XrXxXjXCXCXCXCXCXVXVX<XC O l 4 , 4 4 4 3 d u > : + : : + : : z 2 k a O eX*XXX*X%X*X%X=X}._.{.K.v.",
"v.S.F.G.F.#X*X;XrXkXkXVXVXZXCXZXCXCXuX~.V.> i 3 3 4 4 2 u s N j '.).H.R.L.P.2 2 2 c / ;X*X-X%X*X%X*X|.`.).).S.v.",
"f.f.b.H.K.).|.;XyXkXfXVXCXCXCXCXCXCXBXbXVXX i z z q 4 5 = C #.N CXCXCXCXCXCXX 2 k B rX$X;X*X*X%X%X*X`.).).).z.z.",
":.:.;.Z.N.N.J.OXyXnXcXVXCXCXCXCXZXCXfX2XnXVXa > 2 5 # /./.%.%.CXCXCXCXCXZXcXCX-., p XXW.`.`.W.E.E.].C.M.N.N./ _ ",
"=.-.<.N.M.M.W. XrXbXcXZXCXCXCXCXCXCXdX9XkXVXa a u 5 { 5...7.yXCXVXAXAXCXCXAXBXD > p XX].`.].].!.].].Z.C.N.Z./ ;.",
"-.-.<.V.C.c.J.OXtXcXcXCXCXZXCXZXCXVXdX9XkXVXa a u 5 /.6.[ /.CXCXCXfXAXCXCXCXBXD > v XX].`.W.].!.!.!.H.N.C.Z.Y -.",
"-.-.Y -.Z.Z.1.2XbXcXCXCXCXCXCXCXVXrXyXnXkXVXa a i s NX= 0XMXfXcXjXxXZXCXCXCXBXb P oX!.].].].!.!.[.N.c.H.M.Y <.-.",
"=.T -.-.=.C.!.tXbXBXCXCXCXCXCXCXCXyX9XyXyXfX1 a a s NX^.dXkXbXcXxXrXxXCXCXCXpXg K oXE.!.[.!.R.H.H.M.Z.c.<./ -.=.",
"Y -./ =./ M.+XuXbXCXCXCXZXCXVXVXMXrX1X<X1XrXs p a d mXkXhXfXaXjXhX2XjXCXCXCX7Xn K oX!.!.].R.J.M.N.M.N.x./ ;./ T ",
"m Y T -.T Y OXuXbXCXBXCXCXCXCXCX6X!.!.~.!.R.-Xc @ y rX2X1X2X6X;X2X1XpXxXCXCX1X@X[.T.[.].oXH.C.V.c.T./ / T T -.K ",
"m K Y T -.T  XuXbXVXCXVXCXxXtXiX].].W.!.!.E.!.G.b.C..X.X X X[. XQ.1XpXmXCXCX2X X!.!.].Z.B.N.Z.C.Z.;./ -.-./ K D ",
"K K K R -.Y  XuXvXCXCXbXmXaXOXOXJ.W.!.W.W.!.W.].].].`.`.`.!.~.~.~.@XpXmXCXVX2X[.~.W.W.M.B.B.C.c.M.T =.-.=.=.m K ",
"D m D K =.U .XdXbXCXCX6X6X[.<.c.M.T.!.!.W.W.!.T.E.W.W.W.W.!.!.~.I.1XfXxXCXCX6XA.c.M.c.N.B.M.c.( =.-./ -.T D K m ",
"K K m B m U .XiXvXVXtX<.V.Z.V.V.N.N.N.G.B.N.!.!.W.W.W.W.W.W.!.!.~.+XuXmXCXVX2XI.V.V.Z.C.;.;./ -.-.=.-.K m m m K ",
"m K m m c R +XdXbXCX6X$.( c.M.1.Z.N.M.N.B.M.H.T.T.T.T.T.J.T.T.T.A.8XuXmXCXCX1XI.V.c.c.c.-.=.-.*.=.;.T K K m K x ",
"m K I m D x ^.dXmXVX+X( Y U / U V.N.Z.V.C.C.M.N.M.M.M.M.M.M.M.M.1.8XfXbXCXCX;XJ.2.T ( ( Y =.=.2.=.1.B K K B I d ",
"d n K m I b  XdXvXCXCX1X;XT.R -.=.=.-.T / -.T 1.M.M.B.B.B.B.B.N.C.T Q.pXnXCXCX7X;X!.U ( 1.=.-.V K B K K K Y d i ",
"u x m I D n .XuXxXVXCXaXaX8XM.U T Y T *.*.T / 1.1.1.1.1.1.1.x.x.x.R U.tXnXmXCXSXaXrXA.T Y Y R V K m K K m c u d ",
"d u x I Y x +XfXmXVXVXVXVXhX@XU *.*.=.-.=.=.-.Y T T Y Y T / / / Y Y  XfXbXhXVXVXVXmX6XT K K K K K K K K K i d d ",
"d d d i u R n A.iXxXhXkXvXuX@Xb -.-.=.=.-.-.=.=.=.-.-.=./ T / / =.T Y V.7XmXhXhXhXfX8Xb K K K K K K x d d i u d ",
"d d d d s n g R ~.uXuXiXiXiX+Xb U T Y Y Y Y Y =.=.=.=.=./ / / =.=.K K <.J.iXiXuXiXuX7Xb F K m c x x d u u u u d ",
"d i d d d d s s K iX8X7X8X7X8Xb m K K D D D K Y -.-.-.-.-.-.-.-.-.D D n R iX7X7X7X8XrXx R K n u d d i u i d d d ",
"d d d d d d d s s 1 1 n M b b R K K K K K K K K D K D m m m m m I D m m m g b g g n b R g u u d d d d d d d d d ",
"p p d p d d d d d d s x x m K V K B m m K m m m B B B B B B K I B I m K K K V K K m g x u i d d d d d d d d d d ",
"u p d i d d u d d d d d u x K m m m m m m m m K m m m m m B K K K D I m m B K K K m u i d d l u d d d d d d d d ",
"d d d d d d d d d i d d i i d d u i i d d i d x K K K I I I K K u d u d u d i u d p d d d d u d d d d d d d d d ",
"d d d d d i d d d d d d d d d d d d d d d d d x x x x x l l x x i d d d d p p d u i u d u u d u u d d d d d u d "
};
