/* XPM */
static char *ef9d968fe53b420ba02370f1490b0725if16t0gHV6fnVF3Q[] = {
/* columns rows colors chars-per-pixel */
"65 42 154 2 ",
"   c #000000",
".  c #0B0402",
"X  c #0E0807",
"o  c #01070C",
"O  c #0B0C0C",
"+  c #110700",
"@  c #140C09",
"#  c #1A0F0A",
"$  c #1C110A",
"%  c #090E12",
"&  c #0E1011",
"*  c #151515",
"=  c #161718",
"-  c #161819",
";  c #210E03",
":  c #251000",
">  c #2F1604",
",  c #26160B",
"<  c #2C1B0F",
"1  c #321D0C",
"2  c #241D13",
"3  c #301C11",
"4  c #38200E",
"5  c #3B2312",
"6  c #3F2E1D",
"7  c #171D22",
"8  c gray15",
"9  c #22282C",
"0  c #2A2B2C",
"q  c #3C3120",
"w  c #353535",
"e  c #3B3B3C",
"r  c #411E05",
"t  c #481F04",
"y  c #4E2100",
"u  c #4F2509",
"i  c #532300",
"p  c #572808",
"a  c #412513",
"s  c #442917",
"d  c #4E2F18",
"f  c #522F18",
"g  c #553213",
"h  c #593216",
"j  c #533219",
"k  c #593419",
"l  c #5C391D",
"z  c #753201",
"x  c #673816",
"c  c #623718",
"v  c #623B1D",
"b  c #6A3E1D",
"n  c #713D12",
"m  c #503D25",
"M  c #673E21",
"N  c #6C411F",
"B  c #674422",
"V  c #6E4121",
"C  c #734421",
"Z  c #784621",
"A  c #424445",
"S  c #4A4A4A",
"D  c #4C5155",
"F  c gray33",
"G  c #5E6162",
"H  c #636363",
"J  c #65696B",
"K  c #6C6C6D",
"L  c #747575",
"P  c #757879",
"I  c #797979",
"U  c #803600",
"Y  c #843800",
"T  c #8A410A",
"R  c #834E28",
"E  c #875127",
"W  c #8F5526",
"Q  c #855029",
"!  c #8C542A",
"~  c #92572B",
"^  c #92582D",
"/  c #9C5D2E",
"(  c #A15E2D",
")  c #9D602F",
"_  c #A46331",
"`  c #AC6632",
"'  c #B46C35",
"]  c #B96E36",
"[  c #BF7137",
"{  c #D3752B",
"}  c #C27439",
"|  c #C87739",
" . c #CB783A",
".. c #D17D3C",
"X. c #D7813E",
"o. c #FC8A33",
"O. c #FE8E3A",
"+. c #FF913C",
"@. c #DD8741",
"#. c #E58742",
"$. c #E68A42",
"%. c #EB8C43",
"&. c #EF9046",
"*. c #F49346",
"=. c #FF9546",
"-. c #FF9B45",
";. c #FF9648",
":. c #FF9B4A",
">. c #F99F57",
",. c #FFA34D",
"<. c #FFA84F",
"1. c #FFA650",
"2. c #FFAA50",
"3. c #FCA35E",
"4. c #FFAB63",
"5. c #FFB36A",
"6. c #FAB176",
"7. c #F9B57D",
"8. c #FFC37F",
"9. c #858585",
"0. c #8B8C8C",
"q. c #838B91",
"w. c #8D8F90",
"e. c #939495",
"r. c #9B9C9D",
"t. c #96A2AB",
"y. c #A4A4A4",
"u. c #ACADAD",
"i. c #A0ABB3",
"p. c #AFAFB0",
"a. c #B6B6B6",
"s. c #BDBDBD",
"d. c #FBBB85",
"f. c #FFC38A",
"g. c #EAC19F",
"h. c #D2C5B9",
"j. c #FACCA4",
"k. c #FDCFA8",
"l. c #FBD5B4",
"z. c #FFDBB2",
"x. c #BCC5CC",
"c. c #C3C3C3",
"v. c #CACBCB",
"b. c #DFD3C8",
"n. c #D4D4D4",
"m. c #DADADA",
"M. c #FFE9CB",
"N. c #F9EDDE",
"B. c #E2E2E2",
"V. c #ECECEC",
"C. c #FAEEE1",
"Z. c #FFF9E5",
"A. c #F4F4F4",
"S. c #FFFFFF",
/* pixels */
"S.S.S.S.S.S.S.S.S.S.S.S.S.S.S.S.S.S.S.S.S.S.S.S.S.S.S.S.S.S.S.S.S.S.S.S.S.S.S.S.S.S.S.S.S.S.S.S.S.S.S.S.S.S.S.S.S.S.S.S.S.S.S.S.S.",
"S.S.S.S.S.S.S.S.S.S.S.S.S.S.S.S.S.S.S.S.S.S.S.S.S.S.S.S.S.V.n.s.u.r.e.0.0.w.r.u.c.B.S.S.S.S.S.S.S.S.S.S.S.S.S.S.S.S.S.S.S.S.S.S.S.",
"S.S.S.S.S.S.S.S.S.S.S.S.S.S.S.S.S.S.S.S.n.y.L S 8 O                                     9 J p.S.S.S.S.S.S.S.S.S.S.S.S.S.S.S.S.S.S.",
"S.S.S.S.S.S.S.S.S.S.S.S.S.S.S.m.9.A       = A J q.i.x.h.g.d.5.1.<.<.<.<.<.<.<.1.,.*...( c ;     % P V.S.S.S.S.S.S.S.S.S.S.S.S.S.S.",
"S.S.S.S.S.S.S.S.S.S.S.S.S.e.    S 0.v.S.S.S.Z.z.f.4.=.+.=.-.:.:.:.;.:.,.,.:.;.;.;.:.:.:.:.,.<.X.Z       m.S.S.S.S.S.S.S.S.S.S.S.S.",
"S.S.S.S.S.S.S.S.S.S.S.c.  e B.S.S.S.S.j.3.o.O.+.-.,.<.,.<.' V C ] 2.! , , ! <.,.,.:.;.;.;.=.;.:.:.<.&.W   n.S.S.S.S.S.S.S.S.S.S.S.",
"S.S.S.S.S.S.S.S.S.S.S.8 S.S.S.S.N.6.o.O.=.:.:.:.s     x z Y Y Y Y Y Y Y Y z r V a @.:.;.=.;.;.;.=.;.:.,. .  A.S.S.S.S.S.S.S.S.S.S.",
"S.S.S.S.S.S.S.S.S.S.S u.S.S.S.6.o.=.=.:.1... .> z Y Y Y Y Y Y Y Y Y Y Y Y Y Y z g   <.:.;.=.;.;.;.;.;.;.<.h o S.S.S.S.S.S.S.S.S.S.",
"S.S.S.S.S.S.S.S.S.S.  S.S.S.3.O.:.,.<.&.  : z Y Y Y Y Y Y Y Y Y Y Y Y Y Y Y Y Y Y z u ^ <.;.;.;.=.=.;.;.;.,.  0.S.S.S.S.S.S.S.S.S.",
"S.S.S.S.S.S.S.S.S.L F S.S.l.{ 1.*.f k . 2 T Y Y Y Y Y Y Y Y Y Y Y Y Y Y Y Y Y Y Y Y Y z n 2.:.:.,.:.=.;.=.,.R   S.S.S.S.S.S.S.S.S.",
"S.S.S.S.S.S.S.S.S.  m.S.S.-.~ # . B Y Y T Y Y Y Y Y Y Y Y Y Y Y Y Y Y Y Y Y Y Y Y Y Y Y U l :.*.s %.;.;.;.;.,.  L S.S.S.S.S.S.S.S.",
"S.S.S.S.S.S.S.S.a.  S.S.j.O.,._   Y Y Y Y Y Y Y Y Y Y Y Y Y Y Y Y Y Y Y Y Y Y Y Y Y Y Y Y q       *.;.;.;.;.,.M   S.S.S.S.S.S.S.S.",
"S.S.S.S.S.S.S.S.8 L S.S.O.=.;.,.%.t Y Y Y Y Y Y Y Y Y Y Y Y Y Y Y Y Y Y Y Y Y Y Y Y Y Y n     3 :.:.=.;.;.;.:.*.  9.S.S.S.S.S.S.S.",
"S.S.S.S.S.S.S.S.  V.S.l.O.;.;.;.:.<.| p Y Y Y Y Y Y Y Y Y Y Y Y Y Y Y Y Y Y Y Y Y Y Y y   @ ] <.;.=.;.;.;.;.=.1.1   S.S.S.S.S.S.S.",
"S.S.S.S.S.S.S.0.  S.S.>.=.;.;.;.;.;.:.<.*.Q $     i Y Y Y Y Y Y Y Y n m 6 2         $ R %.<.:.;.;.;.;.;.;.;.;.:.}   y.S.S.S.S.S.S.",
"S.S.S.S.S.S.S.* L S.C.o.=.;.;.;.;.;.;.=.:.:.<.,.X.) N 5 @                   < v _ ;.<.:.:.;.;.;.;.;.;.;.;.;.;.;.<.  & S.S.S.S.S.S.",
"S.S.S.S.S.S.S.  m.S.7.=.;.;.;.;.;.;.;.;.;.;.;.;.:.:.,.,.<.1.,.:.:.*.:.:.,.1.<.,.:.:.=.=.;.;.;.;.;.;.;.;.;.;.;.=.:.!   v.S.S.S.S.S.",
"S.S.S.S.S.S.r.  S.S.o.=.;.;.;.;.;.;.;.;.;.;.;.;.;.;.=.;.;.;.;.;.;.;.;.;.;.=.;.=.=.=.=.;.;.;.;.;.;.;.;.;.;.;.;.;.;.:.  e S.S.S.S.S.",
"S.S.S.S.S.S.w S S.d.+.;.;.;.;.;.;.;.;.=.=.=.;.=.=.;.;.;.;.;.;.;.;.;.;.;.;.;.;.;.;.;.;.;.;.;.;.;.;.;.;.;.;.;.;.;.=.,.j   S.S.S.S.S.",
"S.S.S.S.S.S.  y.S.o.=.;.;.;.;.;.;.;.=.;.:.,.:.:.;.=.;.;.;.;.;.;.;.;.;.;.;.;.;.;.;.;.;.;.;.;.;.;.;.;.;.;.;.;.;.;.;.:.X.  K S.S.S.S.",
"S.S.S.S.S.n.  S.k.O.;.;.;.;.;.;.;.;.=.;.;.;.;.;.;.;.;.=.;.=.=.;.;.;.;.;.;.;.;.;.;.;.;.;.;.;.;.;.;.;.;.;.;.;.;.;.;.;.2.X   S.S.S.S.",
"S.S.S.S.S.I   S.=.=.;.;.;.;.;.;.;.=.;.;.;.;.;.;.;.;.;.;.:.:.:.:.:.:.;.;.;.;.;.;.;.;.;.;.;.;.;.;.;.;.;.;.;.;.;.;.;.=.:.!   a.S.S.S.",
"S.S.S.S.S.8 D M.O.;.;.;.;.;.;.;.;.=.:.;.;.;.;.;.;.;.;.;.;.;.;.;.*.*.;.;.;.;.;.;.;.;.;.;.;.:.;.;.;.;.;.;.;.;.;.;.;.;.;.:.  A S.S.S.",
"S.S.S.S.S.  t.5.=.;.;.;.;.;.;.;.;.;.;.;.;.;.;.;.;.;.;.;.;.;.;.;.;.;.;.;.;.;.;.;.;.;.;.;.=.:.;.;.;.;.;.;.;.;.;.;.;.;.=.1.<   S.S.S.",
"S.S.S.S.m.  b.+.=.;.;.;.;.;.;.;.;.;.;.;.;.;.;.;.;.;.;.;.;.;.;.;.;.;.;.;.;.;.;.;.;.;.;.;.;.=.;.;.;.;.;.;.;.;.;.;.;.;.=.:./   c.S.S.",
"S.S.S.S.0.  8.=.;.;.;.;.;.;.;.;.;.=.:.;.;.;.;.;.;.;.;.;.;.;.;.;.;.;.;.;.;.;.;.;.;.;.;.;.;.=.;.;.;.;.;.;.;.;.;.;.;.;.;.:.;.  J S.S.",
"S.S.S.S.A , ,.=.;.;.;.;.;.;.;.;.;.;.;.;.;.;.;.;.;.;.;.;.;.;.;.;.;.;.;.;.;.;.;.;.;.;.;.;.:.;.;.;.;.;.;.;.;.;.;.;.;.;.;.;.<.# O S.S.",
"S.S.S.S.  C ,.;.;.;.;.;.;.;.;.;.;.;.;.;.;.;.;.;.;.;.;.;.;.;.;.;.;.;.;.;.;.;.;.;.;.;.;.;.<.;.;.;.;.;.;.;.;.;.;.;.;.;.;.;.:.~   S.S.",
"S.S.S.A.  } :.;.;.;.;.;.;.;.;.;.;.;.=.;.;.;.;.;.;.;.;.;.;.;.;.;.;.;.;.;.;.;.;.;.;.;.;.;.<.=.;.;.;.;.;.;.;.;.;.;.;.;.;.;.;.,.  r.S.",
"S.S.S.u.  :.;.;.;.;.;.;.;.;.;.;.;.;.=.;.;.;.;.;.;.;.;.;.;.:.<.<.;.;.;.;.;.;.;.;.;.;.;.;.,.=.;.;.;.;.;.;.;.;.;.;.;.;.;.;.:.,.. A S.",
"S.S.S.G . <.;.;.;.;.;.;.;.;.;.;.;.;.=.;.;.;.;.;.;.;.;.:.;.;.;.;.;.;.;.;.;.;.;.;.;.;.;.:.;.=.;.;.;.;.;.;.;.;.;.;.;.=.;.<.}     y.S.",
"S.S.S.  b 2.;.=.;.;.;.;.;.;.;.;.;.;.=.;.;.;.;.;.;.;.:.;.;.;.;.;.;.;.;.;.;.;.;.;.;.;.:.=.;.;.;.;.;.;.;.;.;.;.;.;.=.:.1.v     0.S.S.",
"S.S.S.u.  h :.,.;.=.;.=.;.;.;.;.;.;.;.=.=.:.,.,.:.;.;.;.;.;.;.;.;.;.;.;.;.;.;.;.:.:.;.;.;.;.;.;.;.;.;.;.=.=.=.:.<....     s.S.S.S.",
"S.S.S.S.S.7   E <.:.;.;.=.;.;.;.;.;.;.;.;.=.;.;.;.;.;.;.;.;.;.;.;.;.;.;.;.;.;.;.;.;.;.;.;.;.;.;.;.=.;.=.;.:.1.#.5     . V.S.S.S.S.",
"S.S.S.S.S.S.y.    ! :.<.:.;.=.;.;.;.;.;.;.;.;.;.;.;.;.;.;.;.;.;.;.;.;.;.;.;.;.;.;.;.;.;.;.;.;.;.;.;.:.,.<.] <       L S.S.S.S.S.S.",
"S.S.S.S.S.S.S.S.L     a ` :.<.,.:.;.=.;.;.=.;.;.;.;.;.;.;.;.;.;.;.;.;.;.;.;.;.;.;.=.;.;.=.;.;.:.,.2.$.C         H S.S.S.S.S.S.S.S.",
"S.S.S.S.S.S.S.S.S.S.0.%     + b ] :.1.,.:.:.:.;.;.=.=.;.=.;.;.;.;.;.;.=.=.=.=.;.;.;.:.:.,.<.:.} V X       O 0.S.S.S.S.S.S.S.S.S.S.",
"S.S.S.S.S.S.S.S.S.S.S.S.V.0.0       . k ~ [ #.:.,.<.<.,.,.,.,.:.:.:.:.,.,.,.,.<.<.:.X./ l $           H m.S.S.S.S.S.S.S.S.S.S.S.S.",
"S.S.S.S.S.S.S.S.S.S.S.S.S.S.S.S.s.J -               $ 4 d v C R Q Q R C v j 5 $               w 9.m.S.S.S.S.S.S.S.S.S.S.S.S.S.S.S.",
"S.S.S.S.S.S.S.S.S.S.S.S.S.S.S.S.S.S.S.S.n.y.L F w =                                 0 H y.B.S.S.S.S.S.S.S.S.S.S.S.S.S.S.S.S.S.S.S.",
"S.S.S.S.S.S.S.S.S.S.S.S.S.S.S.S.S.S.S.S.S.S.S.S.S.S.S.S.S.A.B.n.c.s.s.s.v.n.B.S.S.S.S.S.S.S.S.S.S.S.S.S.S.S.S.S.S.S.S.S.S.S.S.S.S.",
"S.S.S.S.S.S.S.S.S.S.S.S.S.S.S.S.S.S.S.S.S.S.S.S.S.S.S.S.S.S.S.S.S.S.S.S.S.S.S.S.S.S.S.S.S.S.S.S.S.S.S.S.S.S.S.S.S.S.S.S.S.S.S.S.S."
};
