/* XPM */
static char *e59feb021fe945ed9b09bc46eb011999kCCb0zcF2ml352NV[] = {
/* columns rows colors chars-per-pixel */
"65 42 185 2 ",
"   c #000000",
".  c #0B0402",
"X  c #0E0807",
"o  c #02070A",
"O  c #03080D",
"+  c #0B0C0D",
"@  c #170C06",
"#  c #140C09",
"$  c #19120B",
"%  c #1C120B",
"&  c #090E12",
"*  c #0D1113",
"=  c #0E151B",
"-  c #191613",
";  c #161718",
":  c #16181A",
">  c #210E03",
",  c #271307",
"<  c #25150A",
"1  c #2D1B0F",
"2  c #351D0B",
"3  c #251412",
"4  c #241D13",
"5  c #341E16",
"6  c #38200E",
"7  c #2B2116",
"8  c #272119",
"9  c #3B2312",
"0  c #362319",
"q  c #3B2E1E",
"w  c #3D301D",
"e  c #181E22",
"r  c #1B2024",
"t  c #252525",
"y  c #20272B",
"u  c #25292C",
"i  c #2A2B2C",
"p  c #3A2E21",
"a  c #3C3120",
"s  c #2A3136",
"d  c #353535",
"f  c #3B3C3D",
"g  c #452915",
"h  c #522E14",
"j  c #40321F",
"k  c #593215",
"l  c #533219",
"z  c #573318",
"x  c #5C381C",
"c  c #623717",
"v  c #623718",
"b  c #633B1C",
"n  c #6A3E1C",
"m  c #723F19",
"M  c #432820",
"N  c #502F26",
"B  c #483723",
"V  c #523127",
"C  c #503D25",
"Z  c #523F28",
"A  c #663E21",
"S  c #6C411F",
"D  c #75431E",
"F  c #554229",
"G  c #5B462B",
"H  c #5D482E",
"J  c #6E4121",
"K  c #734421",
"L  c #784621",
"P  c #634D32",
"I  c #6C5433",
"U  c #745734",
"Y  c #7A5E39",
"T  c #383E42",
"R  c #434545",
"E  c #474A4C",
"W  c #4A4A4A",
"Q  c #4B4F52",
"!  c #4B5156",
"~  c #555758",
"^  c #5E6162",
"/  c #626263",
"(  c #606468",
")  c #65696B",
"_  c #6C6C6D",
"`  c #747575",
"'  c #777979",
"]  c #93511F",
"[  c #834F28",
"{  c #875127",
"}  c #8C5326",
"|  c #855029",
" . c #8C542A",
".. c #92572B",
"X. c #92582D",
"o. c #9C5D2E",
"O. c #86503F",
"+. c #A15E2D",
"@. c #9D602F",
"#. c #83653E",
"$. c #A56331",
"%. c #AC6632",
"&. c #B36B35",
"*. c #B96E36",
"=. c #BE7136",
"-. c #D3752B",
";. c #C27439",
":. c #C8783B",
">. c #CA783A",
",. c #D17D3C",
"<. c #955945",
"1. c #8B6A41",
"2. c #926F44",
"3. c #947245",
"4. c #9F794A",
"5. c #A27C4D",
"6. c #AA6850",
"7. c #C9795D",
"8. c #D7813E",
"9. c #FC8A33",
"0. c #FE8E3A",
"q. c #FF913C",
"w. c #A9824F",
"e. c #AE8551",
"r. c #B18752",
"t. c #B48953",
"y. c #BA8E56",
"u. c #B98E58",
"i. c #BD9057",
"p. c #DE8641",
"a. c #C4955A",
"s. c #CA9A5E",
"d. c #E38641",
"f. c #E78A42",
"g. c #EC8D43",
"h. c #F28F46",
"j. c #EF9046",
"k. c #F49246",
"l. c #FF9547",
"z. c #FF9B45",
"x. c #FF9648",
"c. c #FF9C4A",
"v. c #F99F57",
"b. c #FFA34D",
"n. c #FFA84F",
"m. c #FFA650",
"M. c #FFAB51",
"N. c #FCA35E",
"B. c #FFB354",
"V. c #D3A061",
"C. c #FFAB63",
"Z. c #FFB36A",
"A. c #F9B278",
"S. c #FFC37F",
"D. c #858585",
"F. c #8B8C8C",
"G. c #888D91",
"H. c #939394",
"J. c #9B9C9D",
"K. c #96A2AB",
"L. c #A4A4A4",
"P. c #ACADAD",
"I. c #A8ADB2",
"U. c #B4B4B4",
"Y. c gray74",
"T. c #FBBB85",
"R. c #FFC38A",
"E. c #EAC19F",
"W. c #D2C5B9",
"Q. c #FBCDA5",
"!. c #FCD7B3",
"~. c #BCC5CC",
"^. c #C3C3C3",
"/. c #CACACB",
"(. c #DFD3C8",
"). c #D4D4D4",
"_. c #DBDBDB",
"`. c #FFE9CB",
"'. c #F9EDDE",
"]. c #E3E3E3",
"[. c #ECECEC",
"{. c #FAEEE1",
"}. c #FFF9E5",
"|. c #F4F4F4",
" X c #FFFFFF",
/* pixels */
" X X X X X X X X X X X X X X X X X X X X X X X X X X X X X X X X X X X X X X X X X X X X X X X X X X X X X X X X X X X X X X X X X",
" X X X X X X X X X X X X X X X X X X X X X X X X X X X X X[.).Y.P.J.H.F.F.G.J.P.^.]. X X X X X X X X X X X X X X X X X X X X X X X",
" X X X X X X X X X X X X X X X X X X X X).L.` W t +                                     y ) P. X X X X X X X X X X X X X X X X X X",
" X X X X X X X X X X X X X X X_.D.R       ; R ) G.I.~.W.E.T.Z.m.n.n.n.n.n.n.n.m.b.k.,.+.v >     & ' [. X X X X X X X X X X X X X X",
" X X X X X X X X X X X X XH.    W F./. X X X}.!.R.C.l.q.l.z.c.c.c.x.c.b.b.c.x.x.x.c.c.c.c.n.n.8.L       _. X X X X X X X X X X X X",
" X X X X X X X X X X X^.  f ]. X X X XQ.N.9.0.q.z.b.n.b.n.&.J K *.M. .< <  .n.b.b.c.x.x.x.l.x.c.c.n.j.}   ). X X X X X X X X X X X",
" X X X X X X X X X X Xt  X X X X'.A.9.0.l.c.c.c.g     x .   4 -       F Z   # J g p.c.x.l.x.x.x.l.x.c.b.:.  |. X X X X X X X X X X",
" X X X X X X X X X XW P. X X XA.9.l.l.c.m.,.:.X + 4.1.  $ y.i.i.t.7 #.s.y.t.  $ q   n.c.x.l.x.x.x.x.x.x.n.k o  X X X X X X X X X X",
" X X X X X X X X X X   X X XN.0.c.b.n.j.        r.a.i.a.i.e.e.r.w.w 4 Y i.r.t.i.s.  1 X.n.x.x.x.l.l.x.x.x.b.  F. X X X X X X X X X",
" X X X X X X X X X` ~  X X!.-.m.k.l z . 4 a.i.r.2.w j 5.t.e.e.i.  <.V   F y.e.e.a.7 4   A M.c.c.b.c.l.x.l.b.[    X X X X X X X X X",
" X X X X X X X X X  _. X Xz...$ . H I $ w.r.t.1.  3 3   t.e.e.i.$ 0 7.O.  u.e.y.I U a.1.  x c.k.g g.x.x.x.x.b.  `  X X X X X X X X",
" X X X X X X X XU.   X XQ.0.b.$.  P a.s.t.e.y.  M 7.6.  4.r.e.r.e.      0 i.y.7       Y I a       k.x.x.x.x.b.A    X X X X X X X X",
" X X X X X X X Xt `  X X0.l.x.b.f.#   q 3.a.s.  <.N   B i.e.e.e.t.y.#.5.i.e.i.  <.7.V   F     1 c.c.l.x.x.x.c.k.  D. X X X X X X X",
" X X X X X X X X  [. X!.0.x.x.x.c.n.:.1     B p   8 2.V.i.y.y.y.y.y.i.i.y.i.s.Z 5 0       # *.n.x.l.x.x.x.x.l.m.2    X X X X X X X",
" X X X X X X XF.   X Xv.l.x.x.x.x.x.c.n.k.| %         X 7 w C F H H G C q 4         % [ g.n.c.x.x.x.x.x.x.x.x.c.;.  L. X X X X X X",
" X X X X X X X; `  X{.9.l.x.x.x.x.x.x.l.c.c.n.b.8.@.S 9 #                   1 b $.x.n.c.c.x.x.x.x.x.x.x.x.x.x.x.n.  *  X X X X X X",
" X X X X X X X  _. XA.l.x.x.x.x.x.x.x.x.x.x.x.x.c.c.b.b.n.m.b.c.c.k.c.c.b.m.n.b.c.c.l.l.x.x.x.x.x.x.x.x.x.x.x.l.c. .  /. X X X X X",
" X X X X X XJ.   X X9.l.x.x.x.x.x.x.x.x.x.x.x.x.x.x.l.x.x.x.x.x.x.x.x.x.x.l.x.l.l.l.l.x.x.x.x.x.x.x.x.x.x.x.x.x.x.c.  f  X X X X X",
" X X X X X Xd W  XT.q.x.x.x.x.x.x.x.x.l.l.l.x.l.l.x.x.x.x.x.x.x.x.x.x.x.x.x.l.x.c.c.c.x.x.x.x.x.x.x.x.x.x.x.x.x.l.b.l    X X X X X",
" X X X X X X  L. X9.l.x.x.x.x.x.x.x.l.x.c.b.c.c.x.l.x.x.x.x.x.x.x.x.x.x.x.l.x.n.=.} l.c.x.x.x.x.x.x.x.x.x.x.x.x.x.c.8.  _  X X X X",
" X X X X X).   XQ.0.x.x.x.x.x.x.x.x.l.c.k.x v g.b.x.x.l.x.l.l.x.x.x.x.x.l.x.b.<       f.c.x.x.x.x.x.x.x.x.x.x.x.x.x.M.X    X X X X",
" X X X X X'    Xl.l.x.x.x.x.x.x.x.l.c.k.  = s   $.n.c.b.b.c.c.c.c.c.c.b.b.M.<   |. XE   n.x.x.x.x.x.x.x.x.x.x.x.x.l.c. .  U. X X X",
" X X X X Xt ! `.0.x.x.x.x.x.x.x.x.l.c.n =  X X_.  ] m h c D D D } } L n k c    X X X].  k.c.x.x.x.x.x.x.x.x.x.x.x.x.x.c.  R  X X X",
" X X X X X  K.Z.l.x.x.x.x.x.x.x.x.x.b.2 (  X X X|.! Q ~ T y r *       O e u U. X X XY.  h.c.x.x.x.x.x.x.x.x.x.x.x.x.l.m.1    X X X",
" X X X X_.  (.q.l.x.x.x.x.x.x.x.x.x.b.2 r  X X X X X X X X X X X X X X X X X X X XU.  6 n.l.x.x.x.x.x.x.x.x.x.x.x.x.l.c.o.  ^. X X",
" X X X XF.  S.l.x.x.x.x.x.x.x.x.x.l.c.:.    o  X X X X X X X X X X X X X X X X X X+ @ M.x.l.x.x.x.x.x.x.x.x.x.x.x.x.x.c.x.  )  X X",
" X X X XR < b.l.x.x.x.x.x.x.x.x.x.x.x.c.c.     X X X X X X X X X X X X X X X X X X_.  &.c.x.x.x.x.x.x.x.x.x.x.x.x.x.x.x.n.% +  X X",
" X X X X  K b.x.x.x.x.x.x.x.x.x.x.x.x.c.[   /. X X X/ t + + + + : u f Q ~ / |. X X XQ , n.x.x.x.x.x.x.x.x.x.x.x.x.x.x.x.c...   X X",
" X X X|.  ;.c.x.x.x.x.x.x.x.x.x.x.x.l.b.< o  X X XH.    @ % < < @ .         *  X X Xf . n.l.x.x.x.x.x.x.x.x.x.x.x.x.x.x.x.b.  J. X",
" X X XP.  c.x.x.x.x.x.x.x.x.x.x.x.x.l.n.% +  X X].  < B.n.n.n.n.n.n.m.m.M.f.    H.R   x b.l.x.x.x.x.x.x.x.x.x.x.x.x.x.x.c.b.. R  X",
" X X X^ . n.x.x.x.x.x.x.x.x.x.x.x.x.l.c.&.          k.c.x.x.x.x.x.x.l.l.l.c.:.      # c.x.l.x.x.x.x.x.x.x.x.x.x.x.l.x.n.;.    L. X",
" X X X  n M.x.l.x.x.x.x.x.x.x.x.x.x.l.x.c.p.n z o.n.c.x.x.x.x.x.x.x.x.x.x.l.c.x.$.d.m.l.x.x.x.x.x.x.x.x.x.x.x.x.l.c.m.b     F. X X",
" X X XP.  k c.b.x.l.x.l.x.x.x.x.x.x.x.l.l.c.b.b.c.x.x.x.x.x.x.x.x.x.x.x.x.x.l.x.c.c.x.x.x.x.x.x.x.x.x.x.l.l.l.c.n.,.o     Y. X X X",
" X X X X Xe   { n.c.x.x.l.x.x.x.x.x.x.x.x.l.x.x.x.x.x.x.x.x.x.x.x.x.x.x.x.x.x.x.x.x.x.x.x.x.x.x.x.l.x.l.x.c.m.d.9     o [. X X X X",
" X X X X X XL.     .c.n.c.x.l.x.x.x.x.x.x.x.x.x.x.x.x.x.x.x.x.x.x.x.x.x.x.x.x.x.x.x.x.x.x.x.x.x.x.x.c.b.n.*.1       `  X X X X X X",
" X X X X X X X X`     g %.c.n.b.c.x.l.x.x.l.x.x.x.x.x.x.x.x.x.x.x.x.x.x.x.x.x.x.x.l.x.x.l.x.x.c.b.M.f.K         /  X X X X X X X X",
" X X X X X X X X X XF.&     X n *.c.m.b.c.c.c.x.x.l.l.x.l.x.x.x.x.x.x.l.l.l.l.x.x.x.c.c.b.n.c.;.J X       + F. X X X X X X X X X X",
" X X X X X X X X X X X X[.F.i       . z ..=.d.c.b.n.n.b.b.b.b.c.c.c.c.b.b.b.b.n.n.c.8.o.x %           / _. X X X X X X X X X X X X",
" X X X X X X X X X X X X X X X XY.) :               % 6 l v K [ | | [ K n l 9 %               d D._. X X X X X X X X X X X X X X X",
" X X X X X X X X X X X X X X X X X X X X).L.` ~ d ;                                 i ) L.]. X X X X X X X X X X X X X X X X X X X",
" X X X X X X X X X X X X X X X X X X X X X X X X X X X X X|.].).^.Y.Y.Y./.).]. X X X X X X X X X X X X X X X X X X X X X X X X X X",
" X X X X X X X X X X X X X X X X X X X X X X X X X X X X X X X X X X X X X X X X X X X X X X X X X X X X X X X X X X X X X X X X X"
};
