/* XPM */
static char *aa5148a7db9249a0e285ad8734ab3c2eADSnzU2qEXyUgdSZ[] = {
/* columns rows colors chars-per-pixel */
"65 65 235 2 ",
"   c #030101",
".  c #0C0708",
"X  c #090B13",
"o  c #181719",
"O  c #12110F",
"+  c #261B18",
"@  c #1A1A24",
"#  c #22242B",
"$  c #2B2C2C",
"%  c #262625",
"&  c #322D29",
"*  c #2C2D33",
"=  c #292A36",
"-  c #333334",
";  c #34353B",
":  c #36393C",
">  c #3B3C3D",
",  c #383835",
"<  c #313034",
"1  c #222122",
"2  c #453B3A",
"3  c #533332",
"4  c #6E3531",
"5  c #401316",
"6  c #3C413D",
"7  c #42403D",
"8  c #75433C",
"9  c #3C3D43",
"0  c #393A45",
"q  c #423D46",
"w  c #4A3D49",
"e  c #3F4044",
"r  c #3D414D",
"t  c #424345",
"y  c #43444B",
"u  c #4B4B4D",
"i  c #484648",
"p  c #534B49",
"a  c #59534E",
"s  c #4A4654",
"d  c #4C4C53",
"f  c #4C4D5C",
"g  c #464654",
"h  c #564E54",
"j  c #4D5159",
"k  c #535455",
"l  c #5E5A55",
"z  c #55565A",
"x  c #57585B",
"c  c #5A5A5C",
"v  c #5A5654",
"b  c #4C524E",
"n  c #615652",
"m  c #625D5A",
"M  c #625A57",
"N  c #6E4E4B",
"B  c #67635D",
"V  c #545462",
"C  c #5C5D62",
"Z  c #5C5D69",
"A  c #565B65",
"S  c #4E5362",
"D  c #635C66",
"F  c #5D6169",
"G  c #62636C",
"H  c #6C6C6A",
"J  c #696765",
"K  c #726B68",
"L  c #76736C",
"P  c #656672",
"I  c #6C6C75",
"U  c #696A76",
"Y  c #6C7179",
"T  c #7B7A76",
"R  c #73727C",
"E  c #787474",
"W  c #736F70",
"Q  c #893D38",
"!  c #963D39",
"~  c #8C443B",
"^  c #884639",
"/  c #94443B",
"(  c #9C453C",
")  c #9C4A3D",
"_  c #944638",
"`  c #A4463B",
"'  c #AC453B",
"]  c #A54A3E",
"[  c #AD4B3C",
"{  c #A84435",
"}  c #B2483D",
"|  c #894A45",
" . c #994A43",
".. c #885549",
"X. c #99544C",
"o. c #925856",
"O. c #A44B42",
"+. c #AA4A43",
"@. c #B24642",
"#. c #A2554D",
"$. c #90655C",
"%. c #A7635A",
"&. c #8F736E",
"*. c #AB7875",
"=. c #B17269",
"-. c #88867D",
";. c #94837A",
":. c #B6867A",
">. c #C18378",
",. c #7B7B84",
"<. c #7C7D8B",
"1. c #767785",
"2. c #7D7E91",
"3. c #807E8C",
"4. c #827E85",
"5. c #817F91",
"6. c #937F80",
"7. c #7D818D",
"8. c #7D8392",
"9. c #8D8B85",
"0. c #83838D",
"q. c #888587",
"w. c #938B88",
"e. c #98938D",
"r. c #838392",
"t. c #8B8B94",
"y. c #898998",
"u. c #989796",
"i. c #8F9197",
"p. c #B98884",
"a. c #A39C94",
"s. c #A59D9A",
"d. c #B9968E",
"f. c #AAA39B",
"g. c #A5A19A",
"h. c #BFA397",
"j. c #9B9CA3",
"k. c #9D9EAA",
"l. c #9897A5",
"z. c #A39EAA",
"x. c #BC9BA4",
"c. c #9CA1AA",
"v. c #9FA1B0",
"b. c #ACAAA4",
"n. c #A3A2AC",
"m. c #ACADAC",
"M. c #A7A6A5",
"N. c #B2ACA5",
"B. c #B4ACAA",
"V. c #B7AAAA",
"C. c #B5B2AC",
"Z. c #BBB2AC",
"A. c #B7B4AA",
"S. c #A4A5B2",
"D. c #ACABB4",
"F. c #A7A9B5",
"G. c #B3ADB4",
"H. c #B6ACB7",
"J. c #B3B2B3",
"K. c #BBB6B1",
"L. c #BCBBB3",
"P. c #B4B4BB",
"I. c #BBBCBC",
"U. c #B7B5BB",
"Y. c #ADB1B2",
"T. c #CC968F",
"R. c #D6A49B",
"E. c #C1A08F",
"W. c #D9A8A2",
"Q. c #C6B2AA",
"!. c #D6B6AA",
"~. c #C3BCB7",
"^. c #D0B2AD",
"/. c #E9B3AD",
"(. c #E6BBB4",
"). c #EDB4B6",
"_. c #C8C2BD",
"`. c #D5C6BB",
"'. c #E8C6BB",
"]. c #EEC9B9",
"[. c #BCBCC4",
"{. c #BAB6C1",
"}. c #CDBCC2",
"|. c #BDC1C3",
" X c #C3C3C3",
".X c #CAC8C7",
"XX c #D3CBC5",
"oX c #D8CAC6",
"OX c #DBD4CB",
"+X c #D9D3C8",
"@X c #DDDBD5",
"#X c #DCDBDB",
"$X c #D6D4D5",
"%X c #CFCECF",
"&X c #E5CCC4",
"*X c #E6D4C9",
"=X c #E3DCD5",
"-X c #EBDBD5",
";X c #E4DEDA",
":X c #EADDDB",
">X c #E6D6D3",
",X c #F8DBD8",
"<X c #F4D0C6",
"1X c #DEE1DC",
"2X c #E6E2DD",
"3X c #E9E2DD",
"4X c #E4E2D7",
"5X c #F4E3DB",
"6X c #FDE3DD",
"7X c #FFE2D7",
"8X c #DEDDE2",
"9X c #EADFE3",
"0X c #E5E4E3",
"qX c #EAE4E1",
"wX c #ECEAE5",
"eX c #ECECEA",
"rX c #E4E4E9",
"tX c #FDE6E3",
"yX c #F2EDEA",
"uX c #F6E7E6",
"iX c #F4F1EC",
"pX c #F7F1EA",
"aX c #EFEFF1",
"sX c #F5F4F2",
"dX c #FBFBF5",
"fX c #FFFFFB",
"gX c #FDFDFA",
"hX c #FFFFFD",
"jX c #FFFEFF",
"kX c white",
"lX c #FEFEFF",
"zX c #FDFDFE",
"xX c #FEFEFE",
"cX c #FAF6F6",
"vX c #F7ECF1",
/* pixels */
"zXzXzXzXzXzXzXzXzXzXzXzXzXzXzXzXzXzXzXgXgXgXgXgXgXgXzXzXzXzXzXzXzXgXzXzXzXzXzXzXzXzXzXzXzXzXzXzXzXzXzXzXzXzXzXzXzXzXzXzXzXzXzXgXzX",
"zXzXzXzXzXzXzXzXzXzXcXzXzXzXzXzXdXzXgXJ.J T T -.gXgXzXgXzXzXzXzXzXzXzXzXzXzXzXzXzXzXzXzXzXzXzXzXzXzXzXzXzXzXzXzXzXgXzXzXzXzXzXzXzX",
"zXzXzXzXzXzXzXzXzXzXzXzXzXdXzXzXzXgX%X% +XyXyX;XL K eXzXzXzXzXzXzXdXzXzXzXdXzXzXzXzXdXzXzXzXzXzXzXzXzXzXzXzXzXzXzXdXeX0XzXdXzXzXzX",
"zXzXzXzXzXzXzXzXzXgXzXzXdXzXgXzXzXzXL.7  XqX#XqXwXyXT -.zXzXzXzXzXzXzXzXzXzXzXI.J - % q.zXdXzXzXzXdX0X~.M.q.J u - - $ % i.zXdXzXzX",
"zXzXzXzXzXzXzXzXzXgXgXgXgXgXgXgXgXE 9.iXqXqXqX;X2X;XyX$Xc I.zXzXzXzXzXzXJ.c $ - u x c t $ W c t - $ $ : 9 t i k c c c c > k cXzXzX",
"zXzXzXzXzXzXzXzXgXgXgXgXsX.XgXJ.v #XwXqX3X2X=X2X2X2X2XqXsXM.c zXsXM.c % > u z c c z C c x u d k c c c c c c c c x c c k i I 8XzXzX",
"zXzXzXzXzXzXzXzXzXzXzXM.W u.k m.sX2X2X2X;X2XqX2X2XqX2XwX2XwXsXJ   > u c z c x c x c x c c x c c x c c c c c c c x k i q.cXzXzXzXzX",
"zXzXzXzXzXzXzXzXzXzXzX$ sXeXyXqX2X3X;XqX2X2X2X2X2X2XdXs.qX2X;XsX#X> , m c z c c x c c x c x c c c c c c c c x k t q.sXzXzXzXzXzXzX",
"zXzXzXzXzXzXzXzXzXzXzX2 z.sX9X3X2X3X;X3X2X;X2X3X3XpXM     yXqX2X0XgXu.% k c z c x c c k x c x c c c c c x z i t.zXzXzXzXzXzXzXzXzX",
"zXzXzXzXzXzXzXzXzXzXcXi p E pXqX2X2X3X=X3X2X;X2X3XOX  gX  cX@X2X;X0XiXeXc % c c c k c c x c z c c c x u u u.zXzXzXzXzXzXzXzXzXzXzX",
"gXgXzXzXzXzXzXzXzXzXyXo yX.Xa b.wX2X2X3X2X3X3X2XyXe.& yX  yXqX2XqX2X;XqXsX X< 7 c c z z x k b d u u u u.zXzXzXzXzXzXzXzXzXzXzXzXzX",
"gXgXzXzXzXzXzXzXzXgX~.i =XOX4Xe.N.qX3X3X;X=X2X2XyXe.  XXiX2X2X;X2X;X0X2X0X0XgXq.% c u u H q.j.I.$XaXzXzXzXzXzXzXzXzXzXzXzXzXzXzXzX",
"zXzXzXzXzXzXzXzXzXgXq.N.OX+XOX+XOXN.~.=X3X3X2X2X;X2XL.yX2X2X2X2X2XqX;X2X2X2X;XiX.Xu zXzXdXzXzXzXzXzXzXzXdXzXzXzXzXzXzXzXzXzXzXzXzX",
"zXzXzXzXzXzXzXzXzXgXL OX*X!.E.<X*XXXN.N.L.+X2X3XqX3XqX;X2XqX;X2X;X2X2X2X3X;XqX2XeX$Xc gXzXzXzXzXzXzXzXzXzXzXzXzXzXzXzXzXzXzXzXzXzX",
"zXzXzXzXzXzXzXzXzXgXe.*XW.^ / ~ ^.=XK.N.b.N.C.@X;X;XqX;XqX3X;XqX3X2X;X;X3X;X3X2X2XqX;Xb zXgXzXgXzXgXzXzXgXzXzXzXzXzXzXzXzXzXzXzXzX",
"zXzXzXzXzXzXzXzXzXdXf.h.^ ( +.! ,X;X-X>X_.Z.b.b.=X3X2XqX;X2X2X2X;X3X2X3X;X3X2X2X2X2XqXwXH q.gXzXzXzXdXzXzXzXzXzXzXzXzXzXzXzXzXzXzX",
"zXzXzXzXzXzXzXzXgXgX`.$.) ] ` =.tX=X6X$.&X*XXX~.f.OX3X3X3X3X2X2X3X;X2X3X;X3X2X2X2X2X3X2XpX$Xm s.zXzXzXgXzXgXzXzXzXzXzXzXzXzXzXzXzX",
"zXzXgXgXzXzXzXzXzXgXXX$.) [ _ R.-X3X<X8 ..<X,X*XoXK._.yXqX3X;X3X3X2X;XqX3X;X3X2X2X3X@X2X;XqXcX_.c b.gXzXzXzXzXzXzXzXzXzXzXzXzXzXzX",
"zXzXzXzXzXzXzXzXzXgX.X$. .` | ,X:X:XT. .( Q X.R.>X@X.Xa C.iX3X4X2X1X2X;X3X=X3X;X2X2XqX2XyX3XwXwXsX~.H H sXzXzXgXzXzXzXzXzXzXzXzXzX",
"zXzXzXzXzXzXzXzXzXzX.XB O.` *.tX;X6X#.` [ +.Q /.:X@X+X3Xw.B 2XyX2X2X3X2X3XwX=X2X3X2X;XqXL.    #X2X2XiXeXW i.dXzXgXzXzXzXzXzXzXzXzX",
"gXzXzXzXzXzXzXzXgXzXH './ ( ^.;X:X<X~ { } `  .6X=X2XoX&X>X+Xm 9.cXqX;X2X3X=X=X2X2X3X2XcX  g.  .XwX0X;X2XyX.Xa $XzXzXzXzXzXzXdXzXzX",
"zXzXzXzXzXzXzXzXzXgXm !. . .,X0X5Xd._ [ { ) :.,X=XuXN '.oXOX3XN.p `.pXqX;XqX3X;X3X;XqX$X  zX   X0X2X;X2X2X2XcX9.H dXzXzXzXzXzXzXzX",
"zXzXzXzXzXzXzXzXzXgX&.p.~ =.tX;XtX$. .[ [ ^ `.3X-X(.^ :.*X+XoX@X4XT K uXuXqX;X3X3X;XqX$X  J.%XeX2X2X;X2X2X2X2XyXwXm b.zXzXzXzXzXzX",
"zXzXzXzXzXzXzXzXgXpX&.$.^ /.-XqX}.5 X.O.]  .6X=X6Xp./ _ ].&XoX+XXX@X.Xs.~.9X0X2X;XqXqX9XW vXqX2X2XqX2X;X2X2X2X;X2XsXJ.v sXzXzXzXzX",
"zXzXzXgXdX.X$XgX.Xf.&.$.N tXqX%Xi n 4 #./ T.6X-X,X| O.O./ 8 &X3X+X+X+X=X~.b._.qXqX3X:XqXyX2X2X2X2X2X2X2X3X3X;X2X2X2XqXcX- eXzXzXzX",
"zXzXgX%Xm.G.V.B.m.C.;.Q.&.oX}.y r.D 3 o.| ).-X-X/. .+.O.+.X.6X;X-X*X*X*X+XOXC.f.XX:XqX:X4X=X2X3X;X2X2X2X;X3X2X2X;X2XeXyX XO cXzXzX",
"zX$Xb.m.G.G.G.J.J.K.& & w.R C P 7.3.p 3 o.tX=X5X=.] ] ] _ T.5X-X,X$.R.T.].'.+X~.N.N..X3X3XqX=X:X;X2X;X;X3X3X;X;XqXdXe.4XwX& u.zXzX",
"zX1Xm.b.Y.P.J.J.J.P.J - 0.k.S.f r.0.D w x.,X;X5X .` ' ] ^ <X=X:XR./ _ ^ ..!.*X+XK.b.B.b.L.=XqX:X3XqX2X3X;X;X3XpXXXp , K a m W zXzX",
"zXzXgX@XJ.m.m.J.Y.P.|.F f F.c.Y U 0.,.q H.9X5X!._ } } +.%.6X;X6X=.( ] ) ^ R.5XOX@XC.N.N.N.f.>XqXqX;X;X3X3XwXpXK a C.m C.w.~.O gXzX",
"gXzXzXzXzX$Xm.b.Y.Y.P.Y.= r.k.F.g r.0.z G uX6X*.( } } ! R.6X=X,X_ ] #.X.| (.;.A.*X*X~.N.b.Z.N.;X2XqXqX;XyXB.2 u.f.f.a L.9._.- gXzX",
"gXzXzXzXzXzXdX%XM.P.D.[.G z n.c.U 1.<.,.- _.7X^ +.' @.~ ,X;X-XR./ O.N 3 &.K t w.*./.*X+X`.A.b.b.;X0X;XqXL.+ K.a.a.f.l C.9.K.E @XzX",
"zXgXzXzXzXzXgXgXzX Xm.J.n.* t.j.n.g r.0.u L (.~ +.+.( =.uX;XtX&.X.4 N D s q J.6XQ ~ p.<X*X+XB.N.N.oXiXyX2Xp n f.a.a.M C.9.~.m gXzX",
"zXzXzXzXzXzXgXgXzXzXsXU.U.x x n.z.D 1.3.,.2 $. .+.+./ W.uX;X,XN 3 K q.,.q $XtXT./ +.( ^ h.;XXXQ.oXf.B q.l Z.m f.a.f.a C.9.L.l gXzX",
"zXgXgXzXzXzXzXzXzXzXzXzXaXu.* j.z.z.g 0.0.h N .. .( | ,X;XcX6.2 q.0.<.r.f 4.pXX.O.[ { _ !.2X-XoX:.&XXXm _.N.l f.a.f.M J.q.L.J zXzX",
"zXzXzXgXzXzXzXzXzXzXzXzXgXzXF z S.k.Z <.,.E 2 Q.:...&.tXvXJ D q.<.<.<.2.U h '.~ ] ' } / tX;X5Xp.8 d.oXK L.a.B f.a.f.n Z.9.L.H zXzX",
"gXzXzXzXdXzXM.rXzXgXzXzXzXzX8X= c.c.l.s r.0.b % ;.,X&X}.y ,.0.,.<.5.<.3.t.+ ..) [ { ( >.5X=X6X..| *.&XK A.-.T a.a.f.n Z.w.A.T zXzX",
"zXzXzXzXzXj.* ,.I ,.i.P.zXrX- 9 F F.S.V <.7.I 6 V.a W h r.3.<.<.7.7.5.R % oX%.` ' +.^ '.-X-X/. . .%.&XJ L.T 9.a.a.s.n Z.-.K.T gXzX",
"zXzXzXzXzXzXd G [.D.D.n.R d d @ y k.k.i.S <.7.z - u R r.<.2.<.<.<.0.y h cX&XQ @.} O.o.6X=X6X>.` ' X.'.K _.B e.a.a.f.n Q.-.L.B zXzX",
"zXzXzXzXzXzXj.9 U.P.G.D.D.[.{.[.0 I k.F.g y.3.D y 0.0.,.8.<.5.3.q.o M.sX5Xp.( @.@.+.p.,X=X6X .+.} ( '.K ~.l b.a.a.f.a Z.9.L.l dXzX",
"zXzXzXzXzXzXzXd G  XP.P.P.F.G.U.R 0 F.k.y.V 3.y.d z r.<.2.2.y.P   J.sX;X6X..+.@.@.! &X-X-X!./ ' } _ !.K ~.n f.a.a.f.v Z.-.L.L ;XzX",
"zXzXzXzXzXzXI V * f Z ,.F.[.{.U.[.0 Y c.S.s r.0.Z r 8.7.r.r.= o q O J.uX(.| ( +.+.#.tX=XtX*./ +.' ) h.L ~.K e.a.a.f.n Z.-.A.T #XzX",
"zXzXzXzXq.q y s I P U Z 0 q V G i.Y y F.z.<.U <.<.f A y.F # t.Y d -   x.W.| #.]  .T.3X@X,X|  .[ } Q Q.K ~.e.L s.a.g.n Z.-.L.T #XzX",
"gXzXzXW : u R I I G P P Y U P G A = 0 1.v.S.q r.8.S f 0 z [.{.P.{.U.H.T L 8 ^  .Q <X4X3XW./ ] ` ` %.&XL C.N.l g.a.f.n Z.9.A.&.#XzX",
"gXzXdXeXo * - e x R Y U U P G U 0 P f f S.k.1.U 7.8.0 R %XU.G.G.D.H.H.H.J.~.4 p.*.,X4X5X=.] { +.( T.`.J L.N.m f.a.f.n B.9.L.T #XzX",
"zXzXzXo C c i 0 * @ * 0 g P Z 0 0.0.1.0 r.j.S.y 7.7.V 9 C I l.{.[.P.G.G.H.H.w.Z.uX-X=X,X/ ' { ] ^ ].`.J L.M.l g.a.s.m C.9.~.T M.zX",
"zXzXzX0X9 c c d : t 9 0 0 X z r.<.,.y.s f S.n.G 1.<.,.y z G s 9 s F <.F.U.U. Xo J 2XyX^._ { +.( =.<X`.H K.Z.v f.a.B.p I.e.H k $XzX",
"zXzXzXzXI.t x c z : 9 ; # 7.r.<.<.<.r.U 0 u.j.S.q r.r.f d I P U U P Z 0 g V U R % o s.*.^ _ / 4 !.*X_.K Z.N.M b.f.7 c - % K.zXzXzX",
"zXzXzXzXzXt.u c c C # g t.<.<.<.<.<.7.i.- x S.c.D <.<.1.9 Z U U P P P U P I P # $ t + 3 (.].(.(.&XOX.XK Z.V.B K a gXzX%XzXgXzXzXzX",
"zXzXzXzXzXzXH x x * I 0.r.,.2.<.7.0.Y o # 9 j.j.k.g r.r.V ; 9 F U U U U R y * c d > > 2 + &.5X=XXXOX.XH L.B.+ .XgXzXzXzXzXzXzXzXzX",
"zXzXzXzXzXzXzXt ; 0.7.7.<.r.2.2.t.y o i 9 9 C n.S.V <.<.Y e : # # = 9 y # j C c c x u > 6 $ % L.qX+X.XK K.B.M.zXzXzXzXzXzXzXzXzXzX",
"zXzXaXM.D.P.V C t.<.<.<.<.<.7.,.@ = t : e * 9 c.l.l.f 7.7.z < y 9 9 0 e G c c x x F x c t , , o k 3X%XL _.p .XzXzXzXzXzXzXzXzXzXzX",
"zXgXzX8Xk.y 1.0.<.<.<.,.7.i.z X 9 y 9 e 9 > 9 G S.n.f r.r.P 9 : 9 : d c c c x c c z x z C c t > , o -.7 l iXzXgXzXzXzXzXzXzXzXzXzX",
"dXgXzXzXq.3.<.<.<.<.3.r.0.# # y 9 9 9 > 9 > # u S.k.y.V <.r.z * d k c c C x c c x c x c C x c k - < E M.zXgXzXzXzXzXzXzXzXzXzXzXzX",
"gXgXzXzX%Xs r.<.2.,.y.F X : u : 9 i : e > 9 9 0 Y S.S.g t.<.Z g c c c x x z c x x c x x z c x i E dXdXzXdXzXzXgXzXzXzXzXzXzXzXzXzX",
"gXgXzXP.J.z r.<.r.r.= = y 9 > e 9 : 9 > > e e # d S.c.r.A r.r.d : u k x c C x c c c c c x u c #XzXdXzXzXzXzXzXzXzXzXzXzXzXzXzXzXzX",
"gXzX#X X#X Xz t.Z * zXzX< > > > 9 > t c i > : : ; 1.k.S.g r.7.A d eXq.i d k x c c c z k u J.zXzXzXzXzXzXzXzXdXzXzXzXzXzXzXzXzXzXzX",
"zXzXzXzXzXzXG $ 4.zXzXP.j.$ > , , > k u i t : c y d S.n.1.P 7.r.0 .XzXzXJ.C u k c k i q.zXzXzXzXzXzXzXzXzXzXzXzXzXzXzXzXzXzXzXzXzX",
"zXzXzXdXzXzX0X0XzXzXm.m.I.q.% , z u.M..XeXzXzX|.P.- 7.c.F.g r.<.d G zXzXzXzXrXt.i H eXzXzXzXzXzXzXzXzXzXzXzXzXzXzXzXzXzXzXzXzXzXzX",
"zXzXzXzXzXgXzXgXdXJ.m.P.m.P.b.%XzXdXzXzXzXzXzXzX.Xc d n.k.R U r.3.- D.zXzXzXzXzXzXzXdXdXzXdXgXzXzXzXzXzXzXzXzXzXzXzXzXzXzXzXzXzXzX",
"zXzXzXdXzXdXzXgXC.b.J.m.P.m. XzXzXzXzXzXzXzXzXgXzX$X# t.k.n.g 0.0.C t 8XzXzXzXzXzXzXzXzXzXzXgXzXzXzXzXzXzXzXzXzXzXzXzXzXzXzXzXzXzX",
"zXzXzXzXzXzXzXJ.m.C.J.J.m.I.zXzXzXzXzXzXzXzXzXzXzXzXR k n.n.G ,.0.< k gXzXzXzXzXzXzXgXzXgXzXzXzXzXzXzXzXzXzXzXzXzXzXzXzXzXzXzXzXzX",
"zXzXdXzXzXzXU.b.J.J.J.b. XzXzXzXzXzXzXzXzXzXzXzXzXzXrX# j.S.D.s - 9 zXzXzXdXzXzXzXzXgXzXzXzXzXzXzXzXzXzXzXzXzXzXzXzXzXzXzXzXzXzXzX",
"zXzXzXzXzXzXzX.Xm.m.m. XgXzXzXzXgXzXzXzXzXzXzXzXzXzXzXd o ; 9 # G zXzXzXzXzXzXzXzXzXzXzXzXzXzXzXzXzXzXzXzXzXzXzXzXzXzXzXzXzXzXzXzX",
"gXzXzXzXzXzXzXzX#Xm.[.zXzXzXzXzXzXzXzXzXzXzXzXzXzXzXzXzX8X8X$X[.zXzXzXzXgXzXzXzXzXgXzXzXzXzXzXzXzXzXzXzXzXzXzXzXzXzXzXzXzXzXzXzXzX",
"zXzXzXzXzXzXzXzXzX0XzXzXzXzXzXzXzXzXzXzXzXzXzXzXzXzXzXzXzXzXzXzXzXzXzXzXzXzXzXzXzXzXzXzXzXzXzXzXzXzXzXzXzXzXzXzXzXzXzXzXzXzXzXzXzX"
};
