/* XPM */
static char *ba3d18436d18440bf1147e37499c9a68JO1haC5Ume8FeKcB[] = {
/* columns rows colors chars-per-pixel */
"65 65 182 2 ",
"   c #020101",
".  c #0F0000",
"X  c #030A02",
"o  c #040C09",
"O  c #0C0D0A",
"+  c #190A06",
"@  c #021907",
"#  c #061409",
"$  c #0B130A",
"%  c #111904",
"&  c #121609",
"*  c #141C0D",
"=  c #071710",
"-  c #0B1B11",
";  c #141413",
":  c #121C12",
">  c #191D13",
",  c #161419",
"<  c #1C1D1C",
"1  c #2A1208",
"2  c #2B1A19",
"3  c #381B1E",
"4  c #06210B",
"5  c #0A240E",
"6  c #192607",
"7  c #0C2413",
"8  c #0D2B13",
"9  c #132414",
"0  c #1C2313",
"q  c #172019",
"w  c #142C1B",
"e  c #1A2C1C",
"r  c #13331A",
"t  c #15351B",
"y  c #19331E",
"u  c #202C0F",
"i  c #23320D",
"p  c #242A16",
"a  c #35281F",
"s  c #20361F",
"d  c #2B341B",
"f  c #2D3B1F",
"g  c #313E1F",
"h  c #3E1B20",
"j  c #1E3322",
"k  c #1D3B25",
"l  c #222223",
"z  c #282E26",
"x  c #2B2B2B",
"c  c #283427",
"v  c #243C22",
"b  c #383D28",
"n  c #322F34",
"m  c #353934",
"M  c #39363B",
"N  c #3C3C3C",
"B  c #432126",
"V  c #4D272A",
"C  c #54292D",
"Z  c #403C27",
"A  c #603134",
"S  c #6E3E3E",
"D  c #33431C",
"F  c #3A4D1E",
"G  c #1E4326",
"H  c #21452A",
"J  c #254B2D",
"K  c #2A4D2D",
"L  c #344323",
"P  c #3A4623",
"I  c #3E4E26",
"U  c #3B452E",
"Y  c #334E2E",
"T  c #3C4C2A",
"R  c #27502F",
"E  c #3E5422",
"W  c #3F403E",
"Q  c #2C5634",
"!  c #2D5936",
"~  c #2F5E39",
"^  c #3A5734",
"/  c #305F39",
"(  c #4A4D2C",
")  c #445A26",
"_  c #425329",
"`  c #495C2E",
"'  c #434C35",
"]  c #425A34",
"[  c #4A5F31",
"{  c #4C553F",
"}  c #4A622C",
"|  c #50682F",
" . c #486438",
".. c #4C6A3D",
"X. c #526632",
"o. c #546A35",
"O. c #526E3D",
"+. c #577132",
"@. c #597336",
"#. c #577138",
"$. c #5C743A",
"%. c #5F7A3B",
"&. c #627D3D",
"*. c #3E3C42",
"=. c #413E42",
"-. c #3F4840",
";. c #434244",
":. c #424B44",
">. c #4C4B4B",
",. c #585558",
"<. c #5C5A5C",
"1. c #724140",
"2. c #7A4545",
"3. c #605D5F",
"4. c #506E41",
"5. c #547744",
"6. c #5A6052",
"7. c #605E60",
"8. c #656464",
"9. c #68666A",
"0. c #6C6B6C",
"q. c #6C7068",
"w. c #717172",
"e. c #767579",
"r. c #7D7D7C",
"t. c #63803B",
"y. c #5C8148",
"u. c #678141",
"i. c #6A8542",
"p. c #628947",
"a. c #6D8B44",
"s. c #698D49",
"d. c #718E47",
"f. c #6D914A",
"g. c #729246",
"h. c #739449",
"j. c #7C9D4F",
"k. c #628C51",
"l. c #699557",
"z. c #6D9D5B",
"x. c #7E9F50",
"c. c #709E5C",
"v. c #7FA04F",
"b. c #7FA151",
"n. c #73A35E",
"m. c #74A660",
"M. c #77A962",
"N. c #7AAC64",
"B. c #81A452",
"V. c #85A954",
"C. c #89AE57",
"Z. c #8CB159",
"A. c #7F7F80",
"S. c #807D80",
"D. c #848484",
"F. c #878688",
"G. c #878888",
"H. c #8C8C8C",
"J. c #8F918F",
"K. c #8F8D93",
"L. c #929292",
"P. c #989597",
"I. c #9C9B9C",
"U. c #A4A4A4",
"Y. c #ABAAAC",
"T. c #B0AFB0",
"R. c #B2B2B3",
"E. c #B7B5B9",
"W. c #BCBCBD",
"Q. c #BFBEC1",
"!. c #C0BEC0",
"~. c #C4C3C4",
"^. c #C9C7C8",
"/. c #CBCBCC",
"(. c #D0CFD1",
"). c #D3D3D3",
"_. c #DCDCDC",
"`. c #E5E4E5",
"'. c #ECECEC",
"]. c #F3F3F3",
"[. c #F8F7FA",
"{. c white",
/* pixels */
"{.{.{.{.{.{.{.{.{.{.{.{.{.{.{.{.{.{.{.{.{.{.{.{.{.{.{.{.{.{.{.{.{.{.{.{.{.{.{.{.{.{.{.{.{.{.{.{.{.{.{.{.{.{.{.{.{.{.{.{.{.{.{.{.{.",
"{.{.{.{.{.{.{.{.{.{.{.{.{.{.{.{.{.{.{.{.{.{.{.{.{.{.{.{.{.{.{.{.{.{.{.{.{.{.{.{.{.{.{.{.{.{.{.{.{.{.{.{.{.{.{.{.{.{.{.{.{.{.{.{.{.",
"{.{.{.{.{.{.{.{.{.{.{.{.{.{.{.{.{.{.{.{.{.{.{.{.{.{.{.{.{.{.{.{.{.{.{.{.{.{.{.{.{.{.{.{.{.{.{.{.{.{.{.{.{.{.{.{.{.{.{.{.{.{.{.{.{.",
"{.{.{.{.{.{.{.{.{.{.{.{.{.{.{.{.{.{.{.{.{.{.{.{.{.{.{.{.{.{.{.{.{.{.{.{.{.{.{.{.{.{.{.{.{.{.{.{.{.{.{.{.{.{.{.{.{.{.{.{.{.{.{.{.{.",
"{.{.{.{.{.{.{.{.{.{.{.{.{.{.{.{.{.{.{.{.{.{.{.{.{.{.{.{.{.{.{.{.{.{.{.{.{.{.{.{.{.{.{.{.{.{.{.{.{.{.{.{.{.{.{.{.{.{.{.{.{.{.{.{.{.",
"{.{.{.{.{.{.{.{.{.{.{.{.{.{.{.{.{.{.{.{.{.{.{.{.{.{.{.{.{.{.{.{.{.{.{.{.{.{.{.{.{.{.{.{.{.{.{.{.{.{.{.{.{.{.{.{.{.{.{.{.{.{.{.{.{.",
"{.{.{.{.{.{.{.{.{.{.{.{.{.{.{.{.{.{.{.{.{.{.{.{.{.{.{.{.{.{.{.{.{.{.{.{.{.{.{.{.{.{.{.{.{.{.{.{.{.{.{.{.{.{.{.{.{.{.{.{.{.{.{.{.{.",
"{.{.{.{.{.{.{.{.{.{.{.{.{.{.{.{.{.{.{.{.{.{.{.{.{.{.{.{.{.{.{.{.{.{.{.{.{.{.{.{.{.{.{.{.{.{.{.{.{.{.{.{.{.{.{.{.{.{.{.{.{.{.{.{.{.",
"{.{.{.{.{.{.{.{.{.{.{.{.{.{.{.{.{.{.{.{.{.{.{.{.{.{.{.{.{.{.{.{.{.{.{.{.{.{.{.{.{.{.{.{.{.{.{.{.{.{.{.{.{.{.{.{.{.{.{.{.{.{.{.{.{.",
"{.{.{.{.{.{.{.{.{.{.{.{.{.{.{.{.{.{.{.{.{.{.{.{.{.{.{.{.{.{.{.{.{.{.{.{.{.{.{.{.{.{.{.{.{.{.{.{.{.{.{.{.{.{.{.{.{.{.{.{.{.{.{.{.{.",
"{.{.{.{.{.{.{.{.{.{.{.{.{.{.{.{.{.{.{.{.{.{.{.{.{.{.{.{.{.{.{.{.{.{.{.{.{.{.{.{.{.{.{.{.{.{.{.{.{.{.{.{.{.{.{.{.{.{.{.{.{.{.{.{.{.",
"{.{.{.{.{.{.{.{.{.{.{.{.{.{.{.{.{.{.{.{.{.{.{.{.{.{.{.{.{.{.{.{.{.{.{.{.{.{.{.{.{.{.{.{.{.{.{.{.{.{.{.{.{.{.{.{.{.{.{.{.{.{.{.{.{.",
"{.{.{.{.{.{.{.{.{.{.{.{.{.{.{.{.{.{.{.{.{.{.{.{.{.{.{.{.{.{.{.{.{.{.{.'./.U.0.D.W.`.[.{.{.{.{.{.{.{.{.{.{.{.{.{.{.{.{.{.{.{.{.{.{.",
"{.{.{.{.{.{.{.{.{.{.{.{.{.{.{.{.{.{.{.{.{.{.{.{.{.{.{.{.{.{.{.{.{.W.r.z 6 F } E i * 8.R.`.{.{.{.{.{.{.{.{.{.{.{.{.{.{.{.{.{.{.{.{.",
"{.{.{.{.{.{.{.{.{.{.{.{.{.{.{.{.{.{.{.{.{.{.{.{.{.{.{.{.{.{.{.`.w.d E d.V.B.B.B.V.j.E $ M H.(.{.{.{.{.{.{.{.{.{.{.{.{.{.{.{.{.{.{.",
"{.{.{.{.{.{.{.{.{.{.{.{.{.{.{.{.{.{.{.{.{.{.{.{.{.{.{.{.{.{.E.W F h.B.x.j.j.j.j.j.j.B.u.% X m <.W.{.{.{.{.{.{.{.{.{.{.{.{.{.{.{.{.",
"{.{.{.{.{.{.{.{.{.{.{.{.{.{.{.{.{.{.{.{.{.{.{.{.{.{.{.{.{.U.p @.B.x.j.j.j.j.j.j.j.j.j.B.i.& G y q 8.{.{.{.{.{.{.{.{.{.{.{.{.{.{.{.",
"{.{.{.{.{.{.{.{.{.{.{.{.{.{.{.{.{.{.{.{.{.{.{.{.{.{.{.{.E.* i.B.j.j.j.j.j.j.j.j.j.j.j.j.B.X.# / Q - >.{.{.{.{.{.{.{.{.{.{.{.{.{.{.",
"{.{.{.{.{.{.{.{.{.{.{.{.{.{.{.{.{.{.{.{.{.{.{.{.{.{.{.~.X j.B.j.j.j.j.j.j.j.j.j.j.j.j.j.j.Z.& H ! / @ ,.{.{.{.{.{.{.{.{.{.{.{.{.{.",
"{.{.{.{.{.{.{.{.{.{.{.{.{.{.{.{.{.{.{.{.{.{.{.{.{.{.(.$ a.B.j.j.j.j.j.j.j.j.j.j.j.j.j.j.j.B.$.- ! Q ! # Y.{.{.{.{.{.{.{.{.{.{.{.{.",
"{.{.{.{.{.{.{.{.{.{.{.{.{.{.{.{.{.{.{.{.{.{.{.{.{.'.W @.B.j.j.j.j.j.j.j.j.j.j.j.j.j.j.j.j.x.j.$ Q Q ! G M ].{.{.{.{.{.{.{.{.{.{.{.",
"{.{.{.{.{.{.{.{.{.{.{.{.{.{.{.{.{.{.{.{.{.{.{.{.{.e.I j.j.j.j.j.j.j.j.j.j.j.j.j.j.j.j.j.j.j.x.f k ! Q Q e Y.{.{.{.{.{.{.{.{.{.{.{.",
"{.{.{.{.{.{.{.{.{.{.{.{.{.{.{.{.{.{.{.{.{.{.{.{.~.d a.x.j.j.j.j.j.j.j.j.j.j.j.j.j.j.j.j.j.j.v.` w ! Q ! r w.{.{.{.{.{.{.{.{.{.{.{.",
"{.{.{.{.{.{.{.{.{.{.{.{.{.{.{.{.{.{.{.{.{.{.{.{.>.| B.j.j.j.j.j.j.j.j.j.j.j.j.j.j.j.j.j.j.j.B.$.- ! Q Q G :.`.{.{.{.{.{.{.{.{.{.{.",
"{.{.{.{.{.{.{.{.{.{.{.{.{.{.{.{.{.{.{.{.{.{.{.W.% V.j.j.j.j.j.j.j.j.j.j.j.j.j.j.j.j.j.j.j.j.b.&.7 ! Q Q Q e /.{.{.{.{.{.{.{.{.{.{.",
"{.{.{.{.{.{.{.{.{.{.{.{.{.{.{.{.{.{.{.{.{.{.{.x %.B.j.j.j.j.j.j.j.j.j.j.j.j.j.j.j.j.j.j.j.j.b.u.e Q Q Q ! @ !.{.{.{.{.{.{.{.{.{.{.",
"{.{.{.{.{.{.{.{.{.{.{.{.{.{.{.{.{.{.{.{.{.{.Q.% V.j.j.j.j.j.j.j.j.x.B.B.b.j.j.j.j.j.j.j.j.j.b.u.9 K Q Q ! 4 U.{.{.{.{.{.{.{.{.{.{.",
"{.{.{.{.{.{.{.{.{.{.{.{.{.{.{.{.{.{.{.{.{.{.M t.B.b.j.B.b.j.j.j.B.a.` [ i.B.j.j.j.j.j.j.j.j.b.u.e Q Q Q ! 7 D.{.{.{.{.{.{.{.{.{.{.",
"{.{.{.{.{.{.{.{.{.{.{.{.{.{.{.{.{.{.{.{.{._.z V.h.d & g &.C.B.V.o.] l.l.L s.b.j.j.j.j.j.j.j.b.&.e ! Q Q ! r H.{.{.{.{.{.{.{.{.{.{.",
"{.{.{.{.{.{.{.{.{.{.{.{.{.{.{.{.{.{.{.{.{.K.[ d.P + 1   B 0 #.$. .M.n.n.c.v B.j.j.j.j.j.j.j.B.$.= ! Q Q ! r H.{.{.{.{.{.{.{.{.{.{.",
"{.{.{.{.{.{.{.{.{.{.{.{.{.{.{.{.{.{.{.{.{.>.+.      1   2.S B + ] l.z.n.N.v s.j.j.j.j.j.j.j.B.$.7 ! Q Q ! 7 G.{.{.{.{.{.{.{.{.{.{.",
"{.{.{.{.{.{.{.{.{.{.{.{.{.{.{.{.{.{.{.{.).{ & I + 1 + 2 1.S S 1.V 2 ..n.M.Y p.x.j.j.j.j.j.j.j.I w ! Q Q ! 5 J.{.{.{.{.{.{.{.{.{.{.",
"{.{.{.{.{.{.{.{.{.{.{.{.{.{.{.{.{.{.{.{.R.> & j.p .   V S S S S 1.A b z.N.s p.x.j.j.j.j.j.j.j.f G ! Q Q ! @ T.{.{.{.{.{.{.{.{.{.{.",
"{.{.{.{.{.{.{.{.{.{.{.{.{.{.{.{.{.{.{.{.L.  o.B.u.o.` ( Z a 3 h C h T m.n.y f.j.j.j.j.j.j.j.j.* Q Q Q Q ! 9 ~.{.{.{.{.{.{.{.{.{.{.",
"{.{.{.{.{.{.{.{.{.{.{.{.{.{.{.{.{.{.{.{.0.X h.b.b.B.j.h.h.o...y...4.z.M...K B.j.j.j.j.j.j.b.d.o ! Q Q Q R c ).{.{.{.{.{.{.{.{.{.{.",
"{.{.{.{.{.{.{.{.{.{.{.{.{.{.{.{.{.{.{.].=.D b.j.j.j.j.j.B.&.5.M.n.n.n.n.j y.B.j.j.j.j.j.j.B._ w ! Q Q Q G -.`.{.{.{.{.{.{.{.{.{.{.",
"{.{.{.{.{.{.{.{.{.{.{.{.{.{.{.{.{.{.{.'.n ` B.j.j.j.j.j.x.a.O.z.n.n.n.Y Q B.j.j.j.j.j.j.j.V.O Q Q Q Q ! t 0.{.{.{.{.{.{.{.{.{.{.{.",
"{.{.{.{.{.{.{.{.{.{.{.{.{.{.{.{.{.{.{.~.> %.b.j.j.j.j.j.j.b.o.5.l.k.^ K f.x.j.j.j.j.j.j.b.i.o ~ Q Q Q Q w P.{.{.{.{.{.{.{.{.{.{.{.",
"{.{.{.{.{.{.{.{.{.{.{.{.{.{.{.{.{.{.~.l 0 g.x.j.j.j.j.j.j.x.d.$.O. . .f.x.j.j.j.j.j.j.j.B.d k ! Q Q Q R c ~.{.{.{.{.{.{.{.{.{.{.{.",
"{.{.{.{.{.{.{.{.{.{.{.{.{.{.{.{.{.{.< ;.' h.x.j.j.j.j.j.j.j.x.j.d.h.b.x.j.j.j.j.j.j.j.b.d.* Q Q Q Q Q G ;.{.{.{.{.{.{.{.{.{.{.{.{.",
"{.{.{.{.{.{.{.{.{.{.{.{.{.{.{.{.{.W.  /.U g.x.j.j.j.j.j.j.j.j.j.j.j.j.j.j.j.j.j.j.j.j.V._ y ! Q Q Q ! y D.{.{.{.{.{.{.{.{.{.{.{.{.",
"{.{.{.{.{.{.{.{.{.{.{.{.{.{.{.{.{.U.< [.' g.x.j.j.j.j.j.j.j.j.j.j.j.j.j.j.j.j.j.j.j.b.u.0 J Q Q Q Q ! O '.{.{.{.{.{.{.{.{.{.{.{.{.",
"{.{.{.{.{.{.{.{.{.{.{.{.{.{.{.{.{.~.N {.6.&.b.j.j.j.j.j.j.j.j.j.j.j.j.j.j.j.j.j.j.j.b.I w ! Q Q Q ! 8 0.{.{.{.{.{.{.{.{.{.{.{.{.{.",
"{.{.{.{.{.{.{.{.{.{.{.{.{.{.{.{.{._.N {.q.+.b.j.j.j.j.j.j.j.j.j.j.j.j.j.j.j.j.j.j.B.&.: J Q Q Q Q Q X ].{.{.{.{.{.{.{.{.{.{.{.{.{.",
"{.{.{.{.{.{.{.{.{.{.{.{.{.{.{.{.{._.< {.F.) B.j.j.j.j.j.j.j.j.j.j.j.j.j.j.j.j.j.j.V.0 y ! Q Q Q ! 5 8.{.{.{.{.{.{.{.{.{.{.{.{.{.{.",
"{.{.{.{.{.{.{.{.{.{.{.{.{.{.{.{.{.{.  {.Y.T j.j.j.j.j.j.j.j.j.j.j.j.j.j.j.j.j.j.C.P - ! Q Q Q ! J : _.{.{.{.{.{.{.{.{.{.{.{.{.{.{.",
"{.{.{.{.{.{.{.{.{.{.{.{.{.{.{.{.{.{.  ]._.m a.b.j.j.j.j.j.j.j.j.j.j.j.j.j.j.j.V.o.o ! Q Q Q Q ! @ H.{.{.{.{.{.{.{.{.{.{.{.{.{.{.{.",
"{.{.{.{.{.{.{.{.{.{.{.{.{.{.{.{.{.{.x U.{.9.X.B.j.j.j.j.j.j.j.j.j.j.j.j.j.j.B.o.X J ! Q Q Q ! t >.].{.{.{.{.{.{.{.{.{.{.{.{.{.{.{.",
"{.{.{.{.{.{.{.{.{.{.{.{.{.{.{.{.].].0.o H.A.; j.b.j.j.j.j.j.j.j.j.j.j.j.j.B.o.$ H ! Q Q Q ! J l ^.{.{.{.{.{.{.{.{.{.{.{.{.{.{.{.{.",
"{.{.{.{.{.{.{.{.{.{.{.{.{.{.].).Y.H.H.; ; w.*.D B.x.j.j.j.j.j.j.j.j.j.b.b.` : k ! Q Q Q ! Q # S.{.{.{.{.{.{.{.{.{.{.{.{.{.{.{.{.{.",
"{.{.{.{.{.{.{.{.{.{.{.{.{.).U.H.H.L.P.r.x l x   _ j.B.j.j.j.j.j.j.x.V.a.P - H ! Q Q Q ! Q # =.U.~.[.{.{.{.{.{.{.{.{.{.{.{.{.{.{.{.",
"{.{.{.{.{.{.{.{.{.{.{.{.).L.H.L.L.L.L.L.H.e.0.w.N p i.V.B.b.b.B.V.j._ 0 w Q ! Q Q Q ! Q # N L.L.H.).{.{.{.{.{.{.{.{.{.{.{.{.{.{.{.",
"{.{.{.{.{.{.{.{.{.{.{.'.I.H.L.L.L.L.L.L.L.P.P.P.H.<.O u } a.a.X.d X w J Q Q Q Q Q ! J X >.L.L.L.H.R.{.{.{.{.{.{.{.{.{.{.{.{.{.{.{.",
"{.{.{.{.{.{.{.{.{.{.{._.L.H.L.L.L.L.L.L.L.L.L.L.L.P.I.0.,     - G ~ ! Q Q Q ! Q Q y   0.I.L.L.L.H./.{.{.{.{.{.{.{.{.{.{.{.{.{.{.{.",
"{.{.{.{.{.{.{.{.{.{.{.].U.H.L.L.L.L.L.L.L.L.L.L.L.L.L.P.I.r.m < y G R ! Q R H y : l H.I.L.L.H.H.Y.].{.{.{.{.{.{.{.{.{.{.{.{.{.{.{.",
"{.{.{.{.{.{.{.{.{.{.{.{._.U.D.H.J.L.L.L.L.L.L.L.L.L.L.L.L.P.I.D.>.x e k e j z M 9.I.P.L.H.H.P.W.].{.{.{.{.{.{.{.{.{.{.{.{.{.{.{.{.",
"{.{.{.{.{.{.{.{.{.{.{.{.{.].W.I.H.H.H.L.L.L.L.L.L.L.L.L.L.L.L.P.I.H.8.3.7.0.D.P.P.H.H.H.I.W._.{.{.{.{.{.{.{.{.{.{.{.{.{.{.{.{.{.{.",
"{.{.{.{.{.{.{.{.{.{.{.{.{.{.{.'.).R.P.D.H.H.H.H.L.L.L.L.L.L.L.L.L.L.P.P.P.L.H.H.H.I.W._.'.{.{.{.{.{.{.{.{.{.{.{.{.{.{.{.{.{.{.{.{.",
"{.{.{.{.{.{.{.{.{.{.{.{.{.{.{.{.{.{.[.'./.W.U.P.D.D.D.D.D.D.D.D.D.D.D.H.I.R.~._.].[.{.{.{.{.{.{.{.{.{.{.{.{.{.{.{.{.{.{.{.{.{.{.{.",
"{.{.{.{.{.{.{.{.{.{.{.{.{.{.{.{.{.{.{.{.{.{.{.{.{.{.].'.'.'.'.'.'.{.{.{.{.{.{.{.{.{.{.{.{.{.{.{.{.{.{.{.{.{.{.{.{.{.{.{.{.{.{.{.{.",
"{.{.{.{.{.{.{.{.{.{.{.{.{.{.{.{.{.{.{.{.{.{.{.{.{.{.{.{.{.{.{.{.{.{.{.{.{.{.{.{.{.{.{.{.{.{.{.{.{.{.{.{.{.{.{.{.{.{.{.{.{.{.{.{.{.",
"{.{.{.{.{.{.{.{.{.{.{.{.{.{.{.{.{.{.{.{.{.{.{.{.{.{.{.{.{.{.{.{.{.{.{.{.{.{.{.{.{.{.{.{.{.{.{.{.{.{.{.{.{.{.{.{.{.{.{.{.{.{.{.{.{.",
"{.{.{.{.{.{.{.{.{.{.{.{.{.{.{.{.{.{.{.{.{.{.{.{.{.{.{.{.{.{.{.{.{.{.{.{.{.{.{.{.{.{.{.{.{.{.{.{.{.{.{.{.{.{.{.{.{.{.{.{.{.{.{.{.{.",
"{.{.{.{.{.{.{.{.{.{.{.{.{.{.{.{.{.{.{.{.{.{.{.{.{.{.{.{.{.{.{.{.{.{.{.{.{.{.{.{.{.{.{.{.{.{.{.{.{.{.{.{.{.{.{.{.{.{.{.{.{.{.{.{.{.",
"{.{.{.{.{.{.{.{.{.{.{.{.{.{.{.{.{.{.{.{.{.{.{.{.{.{.{.{.{.{.{.{.{.{.{.{.{.{.{.{.{.{.{.{.{.{.{.{.{.{.{.{.{.{.{.{.{.{.{.{.{.{.{.{.{."
};
