/* XPM */
static char *_6f4cdcde27e4154bff16eaca6a5e0d7AoqTaHdUAQTLeC27[] = {
/* columns rows colors chars-per-pixel */
"65 65 212 2 ",
"   c #000000",
".  c #0C0201",
"X  c #000A07",
"o  c #02030B",
"O  c #0C0C0C",
"+  c #140000",
"@  c #1A0803",
"#  c #000114",
"$  c #02091C",
"%  c #001F1B",
"&  c #151415",
"*  c #171819",
"=  c #1B1B1B",
"-  c #260D00",
";  c #320F00",
":  c #251406",
">  c #2C1404",
",  c #381602",
"<  c #341D0C",
"1  c #281B17",
"2  c #3E220C",
"3  c #342312",
"4  c #060D24",
"5  c #0A122C",
"6  c #1B1B26",
"7  c #030B3E",
"8  c #0C1634",
"9  c #141B35",
"0  c #131C39",
"q  c #002622",
"w  c #0A312C",
"e  c #19243A",
"r  c #242424",
"t  c #2B2624",
"y  c #2D2D2D",
"u  c #382D2D",
"i  c #37382D",
"p  c #2C3338",
"a  c #333332",
"s  c #36383A",
"d  c #3B3B3B",
"f  c #451901",
"g  c #4B2303",
"h  c #46270D",
"j  c #562807",
"k  c #6D2D01",
"l  c #663408",
"z  c #76390C",
"x  c #6A3C15",
"c  c #753D16",
"v  c #4E3E3E",
"b  c #5E5B1D",
"n  c #704218",
"m  c #7E431D",
"M  c #615D1A",
"N  c #7D700A",
"B  c #45423D",
"V  c #0B1548",
"C  c #121845",
"Z  c #162143",
"A  c #19274A",
"S  c #1B295A",
"D  c #2B294A",
"F  c #262D52",
"G  c #25325B",
"H  c #29345B",
"J  c #33365E",
"K  c #293561",
"L  c #283768",
"P  c #2E3B6B",
"I  c #343760",
"U  c #323E67",
"Y  c #323E6A",
"T  c #00544E",
"R  c #005C54",
"E  c #3D4144",
"W  c #00635A",
"Q  c #16526D",
"!  c #34416C",
"~  c #354372",
"^  c #394676",
"/  c #00786D",
"(  c #434343",
")  c #4A4847",
"_  c #4B4B4B",
"`  c #51504D",
"'  c #535353",
"]  c #575A5A",
"[  c #5B5B5B",
"{  c #7A5C46",
"}  c #565C60",
"|  c #576670",
" . c #646463",
".. c #696864",
"X. c #6C6C6B",
"o. c #706C6C",
"O. c #747473",
"+. c #787877",
"@. c #73797E",
"#. c #7C7C7C",
"$. c #853F0B",
"%. c #91470A",
"&. c #83461C",
"*. c #894A18",
"=. c #95531C",
"-. c #9B531D",
";. c #B65D0D",
":. c #A25216",
">. c #A2561D",
",. c #A3591E",
"<. c #A95A1C",
"1. c #B35D1C",
"2. c #B76012",
"3. c #B96316",
"4. c #BA661B",
"5. c #BA671B",
"6. c #8C4C20",
"7. c #924F21",
"8. c #85562A",
"9. c #9E5724",
"0. c #A55C21",
"q. c #B15F21",
"w. c #AA6125",
"e. c #B06525",
"r. c #B66926",
"t. c #BD6D26",
"y. c #BE6F28",
"u. c #B97033",
"i. c #D6751D",
"p. c #C77226",
"a. c #C37129",
"s. c #CA7529",
"d. c #CF782B",
"f. c #D37B2B",
"g. c #D47A29",
"h. c #986E45",
"j. c #887474",
"k. c #00877C",
"l. c #D5C60B",
"z. c #FFF70D",
"x. c #F2E316",
"c. c #FFF714",
"v. c #FFFF1E",
"b. c #948273",
"n. c #D39052",
"m. c #D29C6B",
"M. c #E19D60",
"N. c #D6A578",
"B. c #B0CE53",
"V. c #9BD17C",
"C. c #075784",
"Z. c #156B8B",
"A. c #187FA5",
"S. c #00968A",
"D. c #00A799",
"F. c #1B83AB",
"G. c #00ADA0",
"H. c #00B8AA",
"J. c #77858F",
"K. c #5CBBB3",
"L. c #00C4B5",
"P. c #00C8B9",
"I. c #7AC497",
"U. c #0F88C6",
"Y. c #30AAD2",
"T. c #1EAEF6",
"R. c #23B1F4",
"E. c #2ABDFC",
"W. c #858584",
"Q. c #878989",
"!. c #8B8B8B",
"~. c #968E8C",
"^. c #90908F",
"/. c #939393",
"(. c #969999",
"). c #9C9C9B",
"_. c #A99B9C",
"`. c #AAA09D",
"'. c #969CA0",
"]. c #A3A3A3",
"[. c #AAA7A6",
"{. c #A5A9AD",
"}. c #ACACAC",
"|. c #B5A4A5",
" X c #B2B1AF",
".X c #AFB4B6",
"XX c #B4B4B4",
"oX c #B7B7B6",
"OX c #BDBDBC",
"+X c #DBAF87",
"@X c #DEB793",
"#X c #E4C4A8",
"$X c #E7CCB3",
"%X c #E8D2BD",
"&X c #C5C5C2",
"*X c #C3C7C9",
"=X c #CBCBCA",
"-X c #D1D1CF",
";X c #CBCED1",
":X c #D3D3D3",
">X c #D8D7D6",
",X c #DADADA",
"<X c #F0DFD0",
"1X c #E0E0DF",
"2X c #DDE3E9",
"3X c #E4E4E4",
"4X c #EAEAE7",
"5X c #ECECEC",
"6X c #F2EEE9",
"7X c #F4F4F3",
"8X c #F8F8F7",
"9X c #FFFFFF",
/* pixels */
"9X9X9X9X9X9X9X9X9X9X9X9X9X9X9X9X9X9X9X9X9X9X9X9X9X9X9X9X9X9X9X9X9X9X9X9X9X9X9X9X9X9X9X9X9X9X9X9X9X9X9X9X9X9X9X9X9X9X9X9X9X9X9X9X9X",
"9X9X9X9X9X9X9X9X9X9X9X9X9X9X9X9X9X9X9X9X9X9X9X9X9X9X9X9X9X9X9X9X9X9X9X9X9X9X9X9X9X9X9X9X9X9X9X9X9X9X9X9X9X9X9X9X9X9X9X9X9X9X9X9X9X",
"9X9X9X9X9X9X9X9X9X9X9X9X9X9X9X9X9X9X9X9X9X9X9X9X9X9X9X9X9X9X9X9X9X9X9X9X9X9X9X9X9X9X9X9X9X9X9X9X9X9X9X9X9X9X9X9X9X9X9X9X9X9X9X9X9X",
"9X9X9X9X9X9X9X9X9X9X9X9X9X9X9X9X9X9X9X9X9X9X9X9X9X9X9X9X9X9X9X9X9X9X9X9X9X9X9X9X9X9X9X9X9X9X9X9X9X9X9X9X9X9X9X9X9X9X9X9X9X9X9X9X9X",
"9X9X9X9X9X9X9X9X9X9X9X9X9X9X9X9X9X9X9X9X9X9X9X9X9X9X9X9X9X9X9X9X9X9X9X9X9X9X9X9X9X9X9X9X9X9X9X9X9X9X9X9X9X9X9X9X9X9X9X9X9X9X9X9X9X",
"9X9X9X9X9X9X9X9X9X9X9X9X9X9X9X9X9X9X9X9X9X9X9X9X9X9X9X9X9X9X9X9X9X9X9X9X9X9X9X9X9X9X9X9X9X9X9X9X9X9X9X9X9X9X9X9X9X9X9X9X9X9X9X9X9X",
"9X9X9X9X9X9X9X9X9X9X9X9X9X9X9X9X9X9X9X9X9X9X9X9X9X9X9X9X9X9X9X9X9X9X9X9X9X9X9X9X9X9X9X9X9X9X9X9X9X9X9X9X9X9X9X9X9X9X9X9X9X9X9X9X9X",
"9X9X9X9X9X9X9X9X9X9X9X9X9X9X9X9X9X9X9X9X9X9X9X9X9X9X9X9X9X9X9X9X9X9X9X>XX.'.9X9X9X9X9X9X9X9X9X9X9X9X9X9X9X9X9X9X9X9X9X9X9X9X9X9X9X",
"9X9X9X9X9X9X9X9X9X9X9X9X9X9X9X9X9X9X9X9X9X9X9X9X9X9X9X9X9X9X9X9X9X9X5X  $.k > s E E XX9X9X9X9X9X9X*X:X9X9X(.@.;X9X9X9X9X9X9X9X9X9X",
"9X9X9X9X9X9X9X9X9X9X9X9X9X9X9X9X=X9X9X9X9X9X9X9X9X9X9X9X9X9X9X9X9X9X] %.-.-.,.:.:.%.. {.9X9X9X7X  , ; + + j l   ;X9X9X9X9X9X9X9X9X",
"9X9X9X9X9X9X9X9X9X9X9X9X9X9X).O = :X9X9X9X9X9X9X9X9X9X9X9X9X9X9X9X9X1 >.-.-.-.-.0.@ 2 < 9X9X9X_ f : q.,.,.-.-.:.( 9X9X9X9X9X9X9X9X",
"9X9X9X9X9X9X9X9X9X9X9X9X9XX.[ 9X& 9X9X9X9X9X9X9X9X9X9X9X9X9X9X9X9X9X@ ,.-.-.-.-.&.  9.j * p J.@ >.  ,.-.-.-.-.>.< 9X9X9X9X9X9X9X9X",
"9X9X9X9X9X9X9X9X9X9X9X9XXX_ 9X= 8X9X9X9X9X9X9X9X9X9X9X9X9X9X9X9X9X9X; ,.-.-.-.<.> 6.&.m x p.z h :   < -.,.,.-.,.; 9X9X9X9X9X9X9X9X",
"9X9X9X9X9X9X9X9X9X9X9X9XO 9X&X..9X9X9X9X9X9X9X9X9X9X9X9X9X9X9X9X9X9X; ,.-.-.-.c x 6.&.&.=.m &.&.a.r.m 6.< j ,.<.; 9X9X9X9X9X9X9X9X",
"9X9X9X9X9X9X9X9X9X9X9X).).9X( 9X9X9X9X9X9X9X9X9X9X9X9X9X9X9X9X9X9X9X- ,.-.-.>.o 2 6.m e.w.r.t.a.t.c 7.w.a.n . > 2 9X9X9X9X9X9X9X9X",
"9X9X9X9X9X9X9X9X9X9X9Xy 9X9Xa 9X9X9X9X9X9X9X9X9X9X9X9X9X9X9X9X9X9X9X> ,.-.-.{ 3 h 7.r.a.d.h = d.r.y.*.t.a.s.f.0.- E 9X9X9X9X9X9X9X",
"9X9X9X9X9X9X9X9X9X9X9Xa 9X7X[ 9X9X9X9X9X9X9X9X9X9X9X9X9X9X9X9X9X9X9XB :.-.c J.*.g.a.y.y.s.o &X5.a.,.e 8.a.y.y.f.f.9Xy ].9X9X9X9X9X",
"9X9X9X9X9X9X9X9X9X9X:XO.9X1XX.9X9X9X9X9X9X9X9X9X9X9X9X9X9X9X9X9X9X9X.Xj k 2Xr g.y.y.y.y.s.  g s.s.j | 8.a.y.g.O     }.#.(.9X9X9X9X",
"9X9X9X9X9X9X9X9X9X9X].[.9X3XX.9X9X9X9X9X9X9X9X9X9X9X9X9X9X9X9X9X9X9X9X{.:X2Xf p.y.y.y.y.a.r.s.t.a.=.  s.y.y.g.  O _ y  ._ 9X9X9X9X",
"9X9X9X9X9X9X9X9X9X9XW.=X9X9X_ 9X9X9X9X9X9X9X9X9X9X9X9X9X9X9X9X9X9X9X9X9X9X( %Xt.t.y.y.y.y.a.y.y.y.a.d.y.t.3.M.&     X.X.X.9X9X9X9X",
"9X9X9X9X9X9X9X9X9X9XO.,X9X9Xr 9X9X9X9X9X9X9X9X9X9X9X9X9X9X9X9X9X9X9X9X9X9Xt 9X#X5.y.y.y.y.y.y.y.y.y.t.5.;.@X9XX.      9X_ 9X9X9X9X",
"9X9X9X9X9X9X9X9X9X9XQ.&X9X9X/.!.9X9X9X9X9X9X9X9X9X9X9X9X9X9X9X9X9X9X9X9X) XX9X9X2.t.y.y.t.y.y.t.t.3.;.m.8X9X9X8X    5X9X[ 9X9X9X9X",
"9X9X9X9X9X9X9X9X9X9XXX^.9X9X9X& ,X9X9X9X9X9X9X9X9X9X9X9X9X9X9X9X9X9X9X[.X ~.9X9XN.;.5.5.5.3.2.2.n.#X9X9X9X9X9X9X9X9X9XQ.=X9X9X9X9X",
"9X9X9X9X9X9X9X9X9X9X9Xd 9X9X9X9XO '.9X2Xp         o r i ` X.W.).}.XX&Xu P.% |.9X9X@XN.N.@X$X6X9X9X9X9X9X9X9X9X9X9X9X9Xy 9X9X9X9X9X",
"9X9X9X9X9X9X9X9X9X9X9Xy 9X9X9X9X9Xj   , <.$ ^ ! ! ! Y P G F Z 0 5 5 4 o S.L.% j.9X9X9X9X9X9X9X9X9X9X9X9X9X9X9X/.9X9X!.}.9X9X9X9X9X",
"9X9X9X9X9X9X9X9X9X9X9X:Xd 9X9X9Xu.g x f.g.l A ! U U U ! ! ! ! ! ! ! ! ~   D.L.R @ >X9X9X9X:X9X9X9X9X9X9X9X9X,X) OX3Xd 9X9X9X9X9X9X",
"9X9X9X9X9X9X9X9X9X9X9X9X..#.9X9.z 2 f.y.t.g.o ~ U U U 6 e D I I I Y U U Y   S.L.G.q 1 _.9X9XQ.W.).=X3X5XXXO. X9X^.r 9X9X9X9X9X9X9X",
"9X9X9X9X9X9X9X9X9X9X9X9X9X} f 1.@ d.y.y.t.s.l S U U F A.Y.F.Z.Q Q A I U ! F   T H.L.H.T X t o._.7X,XW.  & O.[ r #.9X9X9X9X9X9X9X9X",
"9X9X9X9X9X9X9X9X9X9X9X9X9X9XQ.@ x s.y.y.y.a.5.$ ! U D U.T.T.R.R.E.Z.J U U ~ e 1 u w k.H.L.L.S.W . d  .9X9X3X8X9X9X9X9X9X9X9X9X9X9X",
"9X9X9X9X9X9X9X9X9X9X9X9X9X9X9X| 3.a.y.y.t.3.n.p U ! C B.V.I.K.Y.R.C.I U U U ~ 0 B `.j.v w q k./ |.9X9X9X9X9X9X9X9X9X9X9X9X9X9X9X9X",
"9X9X9X9X9X9X9X9X9X9X9X9X9X9X9X) s.2.3.3.;.+X9XW.A ! V c.c.c.z.z.z.N L U U U U ! K 4 o 6 a y   & 9X9X9X9X9X9X9X9X9X9X9X9X9X9X9X9X9X",
"9X9X9X9X9X9X9X9X9X9X9X9X9X9X9Xd 9X<X$X%X9X9X9X,X4 ~ 9 l.x.v.v.v.v.M P U U U U U U ! ! ! Y ~ Z  X9X9X9X9X9X9X9X9X9X9X9X9X9X9X9X9X9X",
"9X9X9X9X9X9X9X9X9X9X9X9X9X9X9X) 9X9X9X9X9X9X9X9Xo ! U S V 7 e i b y Y U U U U U U U U U U ! 5 =X9X9X9X9X9X9X9X9X9X9X9X9X9X9X9X9X9X",
"9X9X9X9X9X9X9X9X9X9X9X9X9X9X8X[ 9X9X9X9X9X9X9X9Xa P U U ! ! Y P P Y U ! U U U U U U U U U ! # 8X9X9X9X9X9X9X9X9X9X9X9X9X9X9X9X9X9X",
"9X9X9X9X9X9X9X9X9X9X9X9X9X9X,XX.9X9X9X9X9X9X9X9Xo.F U U U U U U ! ~ H e Z K ~ ! U U U U U ! o 9X9X9X9X9X9X9X9X9X9X9X9X9X9X9X9X9X9X",
"9X9X9X9X9X9X9X9X9X9X9X9X9X9X,X#.9X9X9X9X9X9X9X9X X8 ! U U U U ~ 5 -   ..Q.B   9 P ! U U U P a 9X9X9X9X9X9X9X9X9X9X9X9X9X9X9X9X9X9X",
"9X9X9X9X9X9X9X9X9X9X9X9X9X9X:X+.9X9X9X9X9X9X9X9X4X# ! U U U ! $ *.%.{.9X9X9X9Xa t o Y U U F O.9X9X9X9X9X9X9X9X9X9X9X9X9X9X9X9X9X9X",
"9X9X9X9X9X9X9X9X9X9X9X9X9X9X,X+.9X9X9X9X9X9X9X9X9X$ ! U U U K g i.b.*X9X9X9X9X] 9X>X  H ~ 4 -X9X9X9X9X9X9X9X9X9X9X9X9X9X9X9X9X9X9X",
"9X9X9X9X9X9X9X9X9X9X9X9X9X9X,XO.9X9X9X9X9X9X9X9X8Xa P U U ! Z h.9X{.OX9X9X9X9X' 9X9X9XO A o 9X9X9X9X9X9X9X9X9X9X9X9X9X9X9X9X9X9X9X",
"9X9X9X9X9X9X9X9X9X9X9X9X9X9X3X..9X9X9X9X9X9X9X9X3XX.G U U ! 0  X9X}. X9X9X9X9X' 9X9X9X9X`   9X9X9X9X9X9X9X9X9X9X9X9X9X9X9X9X9X9X9X",
"9X9X9X9X9X9X9X9X9X9X9X9X9X9X8X] 9X9X9X9X9X9X9X*X3X&X8 ! U U A ^.9X=X(.9X9X9X9X' 9X9X9X9Xd a 9X9X9X9X9X9X9X9X9X9X9X9X9X9X9X9X9X9X9X",
"9X9X9X9X9X9X9X9X9X9X9X9X9X9X9X_ 9X9X9X9X9X9X9XX r [ # ^ ! U K [ 9X3X+.9X9X9X9X' 9X9X9X_ XX_ 9X9X9X9X9X9X9X9X9X9X9X9X9X9X9X9X9X9X9X",
"9X9X9X9X9X9X9X9X9X9X9X9X9X9X9X( 9X9X9X9X9X9X' =X9X=X' o 4 G ^ 6 9X9X] 9X9X9X9X` 9X9Xr W.9Xd 9X9X9X9X9X9X9X9X9X9X9X9X9X9X9X9X9X9X9X",
"9X9X9X9X9X9X9X9X9X9X9X9X9X9X9Xd 9X9X9X9X9XO.  9X9X9X9X .OX_     XX9X' 9X9X9X9X[ }.  =X9X9Xd 9X9X9X9X9X9X9X9X9X9X9X9X9X9X9X9X9X9X9X",
"9X9X9X9X9X9X9X9X9X9X9X9X9X9X9Xd 9X9X9X9XX./._ 9X9X9X9X( 9X9X9X,X#.r a 9X9X9X9X  r 9X9X9X9Xd 9X9X9X9X9X9X9X9X9X9X9X9X9X9X9X9X9X9X9X",
"9X9X9X9X9X9X9X9X9X9X9X9X9X9X9X( 9X9X9X9X) 9X] 8X9X9X9Xd 9X9X9X9X9X9X' 9X9X9X3X)._ 9X9X9X9X) 9X9X9X9X9X9X9X9X9X9X9X9X9X9X9X9X9X9X9X",
"9X9X9X9X9X9X9X9X9X9X9X9X9X9X9X[ 7X9X9X9Xd 9XO.,X9X9X9X( 9X9X9X9X9X9X] 9X9X9X-X].) 9X9X9X8X] 9X9X9X9X9X9X9X9X9X9X9X9X9X9X9X9X9X9X9X",
"9X9X9X9X9X9X9X9X9X9X9X9X9X9X9XW.&X9X9X9X) 9X(.XX9X9X9Xa 9X9X9X9X9X9X..8X9X9X&XXX_ 9X9X9X4X .9X9X9X9X9X9X9X9X9X9X9X9X9X9X9X9X9X9X9X",
"9X9X9X9X9X9X9X9X9X9X9X9X9X9X9XXX(.9X9X9Xd 9XOX!.9X9X9Xd 9X9X9X9X9X9XW.,X9X9XXXOX..5X9X9X4XX.9X9X9X9X9X9X9X9X9X9X9X9X9X9X9X9X9X9X9X",
"9X9X9X9X9X9X9X9X9X9X9X9X9X9X9X3X .9X9X9Xa 9X5X..9X9X9Xd 4X,X,X,X3X5X).XX9X9X&X}.!.:X9X9X5X[ 9X9X9X9X9X9X9X9X9X9X9X9X9X9X9X9X9X9X9X",
"9X9X9X9X9X9X9X9X9X9X9X9X9X9X9X9Xd 9X9X9X( ).W._ 9X9X3XO.X.!.Q.Q.W.Q.X.(.9X9X9Xd #.}.9X9X9Xa 9X9X9X9X9X9X9X9X9X9X9X9X9X9X9X9X9X9X9X",
"9X9X9X9X9X9X9X9X9X9X9X9X9X9X3XXXr 9X9X9X].& ].r 9X).).7X= )././././.W.O.9X9X9Xy O.W.9X9X,X( 8X9X9X9X9X9X9X9X9X9X9X9X9X9X9X9X9X9X9X",
"9X9X9X9X9X9X9X9X9X9X9X9X9XXXW.(.a #.:X8X9X .O. .O & X.  X.(././././.(._ 9X].).^.[ _ 9XO.:X(.X.9X9X9X9X9X9X9X9X9X9X9X9X9X9X9X9X9X9X",
"9X9X9X9X9X9X9X9X9X9X9X9X9XXXW.!.).[ y & & a (.(.).Q.O.).(./././././.(.' r & +.  !.( = y [   =X9X9X9X9X9X9X9X9X9X9X9X9X9X9X9X9X9X9X",
"9X9X9X9X9X9X9X9X9X9X9X9X9X9X3X}.W.Q./.(.).)./././././././././././././.(.)./.W.).!./.!.O.).9X9X9X9X9X9X9X9X9X9X9X9X9X9X9X9X9X9X9X9X",
"9X9X9X9X9X9X9X9X9X9X9X9X9X9X9X9X9X4X=XXX].!.W.W.W.W.W.W.Q.Q.Q.Q.W.W.W.W.W.W.(.].OX:X7X9X9X9X9X9X9X9X9X9X9X9X9X9X9X9X9X9X9X9X9X9X9X",
"9X9X9X9X9X9X9X9X9X9X9X9X9X9X9X9X9X9X9X9X9X9X9X9X7X4X3X3X,X,X,X,X3X3X5X8X9X9X9X9X9X9X9X9X9X9X9X9X9X9X9X9X9X9X9X9X9X9X9X9X9X9X9X9X9X",
"9X9X9X9X9X9X9X9X9X9X9X9X9X9X9X9X9X9X9X9X9X9X9X9X9X9X9X9X9X9X9X9X9X9X9X9X9X9X9X9X9X9X9X9X9X9X9X9X9X9X9X9X9X9X9X9X9X9X9X9X9X9X9X9X9X",
"9X9X9X9X9X9X9X9X9X9X9X9X9X9X9X9X9X9X9X9X9X9X9X9X9X9X9X9X9X9X9X9X9X9X9X9X9X9X9X9X9X9X9X9X9X9X9X9X9X9X9X9X9X9X9X9X9X9X9X9X9X9X9X9X9X",
"9X9X9X9X9X9X9X9X9X9X9X9X9X9X9X9X9X9X9X9X9X9X9X9X9X9X9X9X9X9X9X9X9X9X9X9X9X9X9X9X9X9X9X9X9X9X9X9X9X9X9X9X9X9X9X9X9X9X9X9X9X9X9X9X9X",
"9X9X9X9X9X9X9X9X9X9X9X9X9X9X9X9X9X9X9X9X9X9X9X9X9X9X9X9X9X9X9X9X9X9X9X9X9X9X9X9X9X9X9X9X9X9X9X9X9X9X9X9X9X9X9X9X9X9X9X9X9X9X9X9X9X",
"9X9X9X9X9X9X9X9X9X9X9X9X9X9X9X9X9X9X9X9X9X9X9X9X9X9X9X9X9X9X9X9X9X9X9X9X9X9X9X9X9X9X9X9X9X9X9X9X9X9X9X9X9X9X9X9X9X9X9X9X9X9X9X9X9X",
"9X9X9X9X9X9X9X9X9X9X9X9X9X9X9X9X9X9X9X9X9X9X9X9X9X9X9X9X9X9X9X9X9X9X9X9X9X9X9X9X9X9X9X9X9X9X9X9X9X9X9X9X9X9X9X9X9X9X9X9X9X9X9X9X9X",
"9X9X9X9X9X9X9X9X9X9X9X9X9X9X9X9X9X9X9X9X9X9X9X9X9X9X9X9X9X9X9X9X9X9X9X9X9X9X9X9X9X9X9X9X9X9X9X9X9X9X9X9X9X9X9X9X9X9X9X9X9X9X9X9X9X",
"9X9X9X9X9X9X9X9X9X9X9X9X9X9X9X9X9X9X9X9X9X9X9X9X9X9X9X9X9X9X9X9X9X9X9X9X9X9X9X9X9X9X9X9X9X9X9X9X9X9X9X9X9X9X9X9X9X9X9X9X9X9X9X9X9X"
};
